<svg id="Layer_1" data-name="Layer 1" xmlns="http://www.w3.org/2000/svg" viewBox="0 0 12.89 11.47"><title>shopping cart icons</title><path d="M10.73,8.56a.57.57,0,0,0,.55-.41l1.6-5.53a.57.57,0,0,0-.55-.73H3.39L2.94.41A.57.57,0,0,0,2.4,0H.57a.57.57,0,0,0,0,1.14H2l.51,1.68,1.46,5L3.39,9.71a.57.57,0,0,0,.55.73h.17a.66.66,0,1,0,1.08,0H10.1a.66.66,0,1,0,1.08,0h.23a.57.57,0,0,0,0-1.14H4.7l.22-.74ZM9.19,4.79,9,5.59H8.1v-.8ZM8.1,3.88V3H9.55l-.17.86Zm2.72,1.71H10l.16-.8h.93ZM8.1,7.42V6.5h.74l-.18.91Zm-1.39,0L6.53,6.5h.66v.91Zm-1.66,0L4.78,6.5H5.6l.18.91ZM7.19,5.59H6.35l-.16-.8h1Zm-1.78,0H4.51l-.24-.8h1ZM9.59,7.42l.18-.91h.78l-.26.91Zm1.72-3.54h-1L10.48,3h1.09ZM7.19,3v.86H6L5.83,3ZM4.9,3l.17.86H4L3.73,3Z" style="fill:#d3cfca"/></svg>