<svg id="Layer_1" data-name="Layer 1" xmlns="http://www.w3.org/2000/svg" viewBox="0 0 194.42 194.42"><title>1.Naja-intro-logo-27</title><circle cx="97.21" cy="97.21" r="96.15" style="fill:#c4622d;stroke:#d3cfca;stroke-miterlimit:10;stroke-width:2.11991170906242px"/><path d="M97.25,89c7.85,0,18.92.77,22.24,2.77a22.3,22.3,0,0,0-44.53,0c3.25-2,14.4-2.81,22.29-2.81" style="fill:#d3cfca"/><path d="M115.11,91.19a74.65,74.65,0,0,0-9.38-1.12,6.36,6.36,0,0,1-3.53,3.71l.38.18c7.54.25,11.27-1.84,12.53-2.78" style="fill:#d3cfca"/><path d="M90.93,96.18V94.79h-.23c-8.29,0-11.63-2.85-12.21-3.41-2.37.55-3.65,1.15-3.65,1.67,0,1.14,6,2.65,16.09,3.11" style="fill:#d3cfca"/><path d="M92,94a3.8,3.8,0,0,1,.41-.19,6.71,6.71,0,0,1-3.66-3.7,73.5,73.5,0,0,0-9.28,1.1c1.24.92,5,3,12.53,2.79" style="fill:#d3cfca"/><path d="M119.69,93.06c0-.52-1.25-1.12-3.58-1.66-.62.59-4,3.39-12.19,3.39h-.27v1.38c10.07-.46,16-2,16-3.11" style="fill:#d3cfca"/><path d="M93.48,93.36a12.32,12.32,0,0,1,3.3-.53l0-3c-2.62,0-5,.09-7.25.22a6.11,6.11,0,0,0,3.91,3.33" style="fill:#d3cfca"/><path d="M104.92,90q-3.34-.19-7.32-.21l0,3a12.26,12.26,0,0,1,3.57.55A5.84,5.84,0,0,0,104.92,90" style="fill:#d3cfca"/><path d="M100.79,113.48l.06-4.59a2.89,2.89,0,0,1-1.65-1,2.24,2.24,0,0,1-3.78,0,2.79,2.79,0,0,1-1.8,1v4.55A5.39,5.39,0,0,0,94.73,117a3.34,3.34,0,0,0,2.56,1,3.08,3.08,0,0,0,2.29-.89,5.74,5.74,0,0,0,1.21-3.66" style="fill:#d3cfca"/><path d="M93.33,99.26c-.58.1-1,.2-1.37.29-.14.12-.25.24-.25.35s.38.51,1,.77c.18-.44.37-.91.59-1.41" style="fill:#d3cfca"/><path d="M101.9,100.64c.62-.25,1-.52,1-.75s-.1-.22-.25-.34c-.31-.08-.75-.19-1.31-.29.22.5.41.95.59,1.38" style="fill:#d3cfca"/><path d="M93.42,108.15a2.07,2.07,0,0,0,1.58-1,3.86,3.86,0,0,1-.3-1.48s-.15-1.6,1-5.51c-.05-.4-.11-.81-.2-1.2l-1.2.13c-2.11,4.67-2.24,6.53-2.24,6.55a2.62,2.62,0,0,0,.44,2,1.22,1.22,0,0,0,.94.45" style="fill:#d3cfca"/><path d="M100.37,99.12c-.36-.06-.77-.1-1.2-.13-.06.3-.12.6-.16.9a25.86,25.86,0,0,1,.88,5.8,3.77,3.77,0,0,1-.29,1.45,2.14,2.14,0,0,0,1.61,1,1.24,1.24,0,0,0,.94-.44,2.57,2.57,0,0,0,.45-2c0-.05-.14-1.91-2.24-6.58" style="fill:#d3cfca"/><path d="M97.3,108.15c1,0,1.81-1.1,1.81-2.46a24,24,0,0,0-1.25-6.77h-1c-1.54,4.82-1.39,6.72-1.39,6.74,0,1.4.81,2.5,1.81,2.5" style="fill:#d3cfca"/><path d="M91.72,98.8a22.37,22.37,0,0,1,5.6-.69,21.94,21.94,0,0,1,5.53.68V95.05a9.55,9.55,0,0,0-5.52-1.47,10,10,0,0,0-5.61,1.47Z" style="fill:#d3cfca"/><path d="M72,99.71s2.13,2.84,2.31,4.39c.67,1.09,1.82,3.28,1.82,3.28a2.49,2.49,0,0,1,1.35.17l-.19-.33-.89-1.55c-.22-.41-.36-.71-.38-.75-2.13-5-3.57-5.69-4.09-5.76a1,1,0,0,0-.22,0Z" style="fill:#d3cfca"/><path d="M61.76,129.91A16.76,16.76,0,0,1,58,132.55,20.27,20.27,0,0,1,54.77,134c1.3,1.69,10.42,12.87,23,12.87s17.69-8,18.38-14.82c0-.1.93-9.88-4.87-14.47a36,36,0,0,0-8.62-4c-1.18-.38-2.12-1.78-3.21-3.56l-.05-.12s-1.19-2.08-3.25-1.62c-.18,0-.6.21-.71.44a.56.56,0,0,0,.1.48c.2.37.44.78.7,1.2l.41.69a19.55,19.55,0,0,1,1.64,3.06l.61.61c2.52,2.49,4.11,4.2,4.29,5l-.77.17c-.17-.73-3-3.55-4.07-4.61l-.69-.68-.1-.15a18.36,18.36,0,0,0-1.59-3l-.42-.69c-.26-.43-.5-.84-.71-1.23a1.28,1.28,0,0,1-.13-1.2,1.12,1.12,0,0,1,.63-.63,34.62,34.62,0,0,0-1.8-3.36l0-.11a17.12,17.12,0,0,0-2.2-4.12c-.65-1.28-1.34-2-2-2a1.79,1.79,0,0,0-1.32.55c.7,1.41,4.11,8.33,4.42,10,1.71,2.68,3.76,6,4,7a2.68,2.68,0,0,0,.87,1l.15.13a42.53,42.53,0,0,0,6.4,6.24,20.6,20.6,0,0,1,3.74,3.6c1.3,2.14.58,5.28.55,5.41-2,7.27-10.74,6.9-10.82,6.89-.3,0-8.43,0-15.49-9" style="fill:#d3cfca"/><path d="M122.75,99.16a.87.87,0,0,0-.25,0c-.51.08-2,.79-4.07,5.74,0,0-.17.34-.38.76l-1.39,2.11a4.06,4.06,0,0,1,1.59-.28l2-3.29a31.59,31.59,0,0,1,1.41-3.24A15.13,15.13,0,0,1,122.75,99.16Z" style="fill:#d3cfca"/><path d="M136.21,132.55a16.65,16.65,0,0,1-3.63-2.52c-7,8.86-15,8.86-15.43,8.88-.05,0-8.79.38-10.79-6.88,0-.15-.75-3.28.54-5.42a20.75,20.75,0,0,1,3.74-3.59,42.46,42.46,0,0,0,6.4-6.24l.09-.09a2.72,2.72,0,0,0,.93-1.06c.24-1,2.28-4.33,4-7,.31-1.65,3.72-8.57,4.41-10a1.77,1.77,0,0,0-1.33-.55c-.69.07-1.37.75-2,2a22,22,0,0,0-2.24,4.46,27.85,27.85,0,0,0-1.86,3.16,1.19,1.19,0,0,1,.66.65,1.26,1.26,0,0,1-.13,1.2c-.21.38-.45.79-.71,1.23l-.42.7a18,18,0,0,0-1.59,3l-.09.15-.68.68c-1.07,1.06-3.91,3.88-4.07,4.61l-.77-.17c.18-.8,1.77-2.51,4.29-5l.62-.61a19.32,19.32,0,0,1,1.64-3.05l.41-.69c.26-.42.5-.83.7-1.2a.6.6,0,0,0,.1-.48c-.1-.23-.53-.4-.72-.44a2.62,2.62,0,0,0-.58-.07,3.42,3.42,0,0,0-2.67,1.71l0,.1c-1.09,1.78-2,3.18-3.21,3.57a36.14,36.14,0,0,0-8.64,4c-5.78,4.58-4.86,14.36-4.85,14.46.69,6.84,5.93,14.82,18.38,14.82s21.57-11,23-12.82a19.17,19.17,0,0,1-3.4-1.46" style="fill:#d3cfca"/><path d="M60.68,124.1c-.75,1.63-2.6,3.16-5.54,4.55a14,14,0,0,1-5.71,1.6h-.06a2.8,2.8,0,0,0-.14.45,2.15,2.15,0,0,0,.18,1.63l0,.09s.54,1.24,2.59,1.24a12.57,12.57,0,0,0,5.57-1.8c3.67-2,4.79-3.72,5.09-4.84a2.23,2.23,0,0,0-.13-1.68,2.51,2.51,0,0,0-1.89-1.24" style="fill:#d3cfca"/><path d="M57.48,120.24c.11.31.21.62.33.91l0,.1v.1c0,.07-.29,1.91-3.63,3.62-3.8,1.93-5.79,1.19-5.89,1.16l-.14-.05-.07-.13c-.22-.41-.41-.84-.63-1.25a4.4,4.4,0,0,0-1,1.66,2.17,2.17,0,0,0,.1,1.64l0,.09c0,.06.51,1.38,2.8,1.38a13.19,13.19,0,0,0,5.38-1.52c3.76-1.78,5-3.47,5.32-4.56a2.2,2.2,0,0,0,0-1.68,2.76,2.76,0,0,0-2.6-1.44" style="fill:#d3cfca"/><path d="M139.06,128.65c-2.94-1.39-4.79-2.92-5.54-4.55a2.47,2.47,0,0,0-1.85,1.19,2.19,2.19,0,0,0-.16,1.73c.29,1.12,1.42,2.87,5.08,4.84a12.53,12.53,0,0,0,5.57,1.8c2.05,0,2.57-1.2,2.6-1.25a2.25,2.25,0,0,0,.22-1.75,3.52,3.52,0,0,0-.14-.42h-.06a14,14,0,0,1-5.71-1.6" style="fill:#d3cfca"/><path d="M146.87,124.84c-.19.36-.36.74-.55,1.1l-.07.13-.15.06a3.91,3.91,0,0,1-1.22.16,10.42,10.42,0,0,1-4.67-1.31c-3.34-1.71-3.62-3.54-3.63-3.62l0-.1,0-.09c.12-.31.22-.63.33-.93-2.26,0-2.79,1.38-2.79,1.39a2.25,2.25,0,0,0-.07,1.75c.35,1.1,1.56,2.78,5.33,4.56a13.22,13.22,0,0,0,5.37,1.52c2.29,0,2.79-1.32,2.8-1.38a2.2,2.2,0,0,0,.13-1.76,4.3,4.3,0,0,0-.84-1.47" style="fill:#d3cfca"/><path d="M140.16,106.18a42.62,42.62,0,0,1-2.76,15.14c.1.33.65,1.64,3.18,2.94,2.86,1.46,4.63,1.25,5.13,1.15a54.49,54.49,0,0,0-42.54-79.76c-1.25,3.23-3.06,7.15-4.39,7.15a.65.65,0,0,1-.2,0c-.37.87-.82,1.4-1.36,1.4s-1-.51-1.33-1.33l-.14,0c-1.35,0-3.14-3.91-4.41-7.2a54.49,54.49,0,0,0-42.62,79.77c.49.1,2.26.31,5.12-1.15,2.54-1.29,3.08-2.6,3.19-2.94A42.82,42.82,0,0,1,92.46,63.61h.41l0,.41a3.08,3.08,0,0,0,.94,2.31,5,5,0,0,0,3.3,1.47h.1a5,5,0,0,0,3.31-1.47,3.14,3.14,0,0,0,.94-2.31l0-.41h.41a42.85,42.85,0,0,1,38.26,42.57" style="fill:#d3cfca"/><path d="M95,40.67c.72,2.61,2.56,9.79,1.52,11.7.23.63.48,1,.73,1s.53-.41.76-1.08c-.34-.65-.41-2.14.26-5.64.36-1.86.84-3.79,1.2-5.15.07-1.2.1-2.34.1-3.33,0-2.1-1.06-3.88-2.31-3.88s-2.31,1.78-2.31,3.88c0,.76,0,1.61.05,2.52" style="fill:#d3cfca"/><path d="M100.61,40.23c-.29.91-1.08,3.83-1.61,6.56-.92,4.86-.25,5.22-.24,5.22h0c1.08,0,4-7.07,5.13-10.77.47-1.52.12-3-.77-3.32a1.14,1.14,0,0,0-.29,0c-.86,0-1.81,1-2.22,2.34" style="fill:#d3cfca"/><path d="M95.74,52.06h0c.91-.28-.48-7.63-1.83-12.11-.42-1.38-1.4-2.42-2.28-2.42a.91.91,0,0,0-.3,0,1.48,1.48,0,0,0-.91,1.13,4.18,4.18,0,0,0,.1,2.29c1.16,3.8,4.09,11.08,5.21,11.08" style="fill:#d3cfca"/><circle cx="97.21" cy="97.21" r="96.15" style="fill:none;stroke:#d3cfca;stroke-miterlimit:10;stroke-width:2.11991170906242px"/><path d="M12.93,68.52a1.22,1.22,0,0,0,.19.9,1.9,1.9,0,0,0,1,.62q1.31.36,2.67.69l3.12.75,2.92.69L25,72.7l1.66.39,1.37.32-.17.72-1,.5-2.24,1.16-3,1.59L18.3,79.16q-1,.55-2.19,1.18l-2.24,1.17L11.46,82.8l5.85,1.39,2.88.67q1.3.3,2.5.53a1.51,1.51,0,0,0,1.22-.19,2.34,2.34,0,0,0,.69-1l.22-.63.58.14q-.11.46-.24.92t-.22.89q-.13.5-.24,1t-.22,1q-.1.47-.19.86c-.05.3-.11.58-.18.84L23.52,89l.13-.85a1.2,1.2,0,0,0-.2-.91,1.93,1.93,0,0,0-1-.61q-1.31-.36-2.67-.69l-3.14-.76-1.79-.42-1.66-.39L11.74,84l-1.09-.22a1.24,1.24,0,0,0-1,.18,1.88,1.88,0,0,0-.61,1l-.21.68-.58-.14.08-.35.12-.51q.08-.35.19-.76c.07-.28.15-.57.22-.87L9,82.13l.24-1c0-.17.07-.35.1-.54l7.34-3.87,2-1.08,2.09-1.1,2.27-1.2-3.83-.91-2.88-.68q-1.3-.31-2.49-.54a1.49,1.49,0,0,0-1.21.14,2.29,2.29,0,0,0-.7,1.1l-.22.63-.58-.14c.09-.29.16-.59.24-.9s.16-.55.24-.89l.23-1,.23-1c.07-.31.13-.59.17-.84s.13-.56.18-.84l.58.14Z" style="fill:#d3cfca"/><path d="M39.37,51.82q-.29.47-.59.92l-.55.88-.59.94-.59,1-.58,1q-.32.56-.65,1.11l-.51-.31.26-.51a2.37,2.37,0,0,0,.3-.92.62.62,0,0,0-.33-.58,2,2,0,0,0-.5-.17L34.15,55l-1.1-.19-1.12-.18-1-.15-.6-.09-.35.57-.46.74-.66,1.06-.55.93-.41.69-.34.55q.36.47.8,1.09t.9,1.22q.46.6.85,1.05a3.2,3.2,0,0,0,.6.57.77.77,0,0,0,.74,0,2.28,2.28,0,0,0,.85-.78l.34-.46.51.31q-.3.49-.59.92l-.53.81-.48.76-.39.66q-.2.35-.37.67t-.4.7l-.51-.31.21-.49a1.46,1.46,0,0,0,.07-1,3.61,3.61,0,0,0-.55-1.07l-.55-.77q-.4-.56-.94-1.3L27,59.93l-1.17-1.61L24.2,56l-1.65-2.28-1.34-1.85-.74-1L21,50l.71.11,1.27.2,1.64.26,1.82.29,1.8.28,1.57.25,1.94.3L33.5,52l1.45.23,1,.14a9,9,0,0,0,1,.09,3.65,3.65,0,0,0,.71,0,1.38,1.38,0,0,0,.49-.18,1.31,1.31,0,0,0,.36-.34l.32-.39ZM23.5,53.33,27,58.11l2.37-3.89Z" style="fill:#d3cfca"/><path d="M37,32.16a1.14,1.14,0,0,0-.36.86,1.83,1.83,0,0,0,.48.9q.18.22.58.64l.92,1,1.16,1.18L41.14,38c.74.75,1.72,1.83,2.48,2.62a15.79,15.79,0,0,1,2,2.55,7.12,7.12,0,0,1,1,2.63,8.4,8.4,0,0,1,.14,1.7A9,9,0,0,1,46.65,49a8.43,8.43,0,0,1-.29,1.12,4.25,4.25,0,0,1-.3.71l-.54-.21c0-.1.07-.25.12-.44a3.84,3.84,0,0,0,.09-.71,4,4,0,0,0-.09-1,4.72,4.72,0,0,0-.41-1.14,8.23,8.23,0,0,0-.65-1q-.4-.56-.88-1.13t-1-1.12L41.8,43q-.28-.32-.78-.84c-.33-.34-2.44-2.6-2.87-3L36.9,37.87,35.81,36.8,35,36a1.41,1.41,0,0,0-1-.47,2.31,2.31,0,0,0-1.09.61l-.64.54-.42-.42q.54-.5,1.05-1t.94-.9l.84-.83.8-.79q.44-.44.81-.84t.92-.94l.42.42Z" style="fill:#d3cfca"/><path d="M67.58,29.9l-1,.54-.9.52-1,.55-1,.59-1,.63q-.54.35-1.1.68l-.3-.51.47-.33a2.36,2.36,0,0,0,.7-.67.62.62,0,0,0,0-.67,2,2,0,0,0-.36-.38l-.69-.59-.88-.69-.9-.69-.77-.58-.49-.36-.58.34-.75.43L56,29.34l-.93.56-.68.42-.55.33q.09.58.2,1.34t.22,1.5q.12.75.26,1.33a3.22,3.22,0,0,0,.26.79.77.77,0,0,0,.63.39,2.3,2.3,0,0,0,1.12-.29l.52-.25.3.51-1,.54-.85.46-.78.45-.65.4-.64.42-.69.43-.3-.51.42-.33a1.46,1.46,0,0,0,.55-.88,3.6,3.6,0,0,0,0-1.2q0-.25-.13-.94t-.22-1.59q-.13-.9-.27-1.93t-.28-2q-.18-1.33-.39-2.82t-.39-2.79q-.18-1.31-.31-2.27t-.19-1.23l.86-.51.58.43,1,.78,1.33,1L56.58,23,58,24.11l1.27,1,1.57,1.18,1.42,1.07,1.17.89.84.61a9.11,9.11,0,0,0,.86.56,3.65,3.65,0,0,0,.65.3,1.35,1.35,0,0,0,.51.07,1.32,1.32,0,0,0,.48-.13l.47-.19ZM52.85,23.78l.87,5.88,3.92-2.32Z" style="fill:#d3cfca"/><path d="M93.73,11.71l-.18-.51c-.07-.2-.15-.41-.24-.62A6.66,6.66,0,0,0,93,10a1.69,1.69,0,0,0-.34-.46,1.58,1.58,0,0,0-1-.41,8.23,8.23,0,0,0-1.49.06L86,9.63q.1,1.09.22,2.23L86.72,16l2.56-.28q.95-.1,1.56-.22a2.07,2.07,0,0,0,.92-.37,1.39,1.39,0,0,0,.48-.92,9,9,0,0,0,.07-1.33l.62-.07c0,.29,0,.58.07.88s0,.58.08.93l.12,1.07L93.34,17q.06.56.13,1t.11.78l-.62.07a7.47,7.47,0,0,0-.4-1.32,1.35,1.35,0,0,0-.8-.8,2.27,2.27,0,0,0-.95-.12c-.38,0-.86.06-1.43.12L86.83,17q.17,1.57.34,3t.37,2.79a1.22,1.22,0,0,0,.45.93,2.57,2.57,0,0,0,1.21.2h1l.07.59-1.5.14-1.32.13-1.22.12-1.05.13-1.13.14-1.28.16-.07-.59.84-.19a1.34,1.34,0,0,0,.82-.43,1.71,1.71,0,0,0,.17-1q0-.43-.09-1.11l-.14-1.48q-.08-.81-.17-1.7L84,17.06l-.2-1.83q-.1-.9-.2-1.71l-.19-1.47q-.09-.66-.16-1.09a1.49,1.49,0,0,0-.45-1,1.75,1.75,0,0,0-1-.23h-.79l-.07-.59,1.26-.11,2.18-.24.79-.09,1.48-.17,1.66-.2,1.33-.15,2-.23,1.2-.17.62-.12.28-.08q0,.43.11.8t.09.61a1.92,1.92,0,0,0,.07.38c0,.22.08.46.12.72a6.58,6.58,0,0,0,.14.72c0,.27.1.52.16.77Z" style="fill:#d3cfca"/><path d="M120.5,18.67a9.43,9.43,0,0,1-1.21,3.22,8.08,8.08,0,0,1-5.2,3.77,8.69,8.69,0,0,1-3.58,0,9.13,9.13,0,0,1-3.26-1.24,8.33,8.33,0,0,1-2.37-2.22,7.9,7.9,0,0,1-1.29-2.94,8.67,8.67,0,0,1,0-3.44,8.23,8.23,0,0,1,6.49-6.66,8.91,8.91,0,0,1,3.47,0,10.69,10.69,0,0,1,3.56,1.26,7.32,7.32,0,0,1,2.34,2.13,7,7,0,0,1,1.13,2.8A9.25,9.25,0,0,1,120.5,18.67Zm-3.34-.06a14.32,14.32,0,0,0,.23-2.6,8.28,8.28,0,0,0-.4-2.61,5.58,5.58,0,0,0-1.28-2.14,4.29,4.29,0,0,0-2.4-1.19,4.66,4.66,0,0,0-4.1,1A8.24,8.24,0,0,0,106.89,16a13.81,13.81,0,0,0-.24,3.19,7.75,7.75,0,0,0,.56,2.66,5.09,5.09,0,0,0,1.4,1.93,4.82,4.82,0,0,0,2.3,1,4.75,4.75,0,0,0,2.48-.11,4.32,4.32,0,0,0,1.8-1.22,6.67,6.67,0,0,0,1.22-2.09A15.88,15.88,0,0,0,117.17,18.61Z" style="fill:#d3cfca"/><path d="M140.53,37.75l-.57-.26-.64-.31-.8-.43-.85-.48a4.85,4.85,0,0,1-.6-.41,2.73,2.73,0,0,1-.42-.42,2.62,2.62,0,0,1-.3-.51A8.09,8.09,0,0,1,136,34a8.65,8.65,0,0,1-.27-.92q-.11-.48-.22-1.09t-.23-1.41q-.09-.54-.16-1.11l-.15-1.11c0-.36-.1-.67-.15-1a4.19,4.19,0,0,0-.16-.63.8.8,0,0,0-.28-.33l-.57-.41-.33-.2-.35-.21-.41-.25-.54,1-.66,1.23-.65,1.22c-.21.39-.37.72-.5,1a1.68,1.68,0,0,0-.21,1,1.28,1.28,0,0,0,.58.73l.8.58-.29.52L130.1,32l-1-.58-1-.55-1-.53-1-.55c-.37-.19-.74-.38-1.12-.59l.29-.52.8.33a1.35,1.35,0,0,0,.91.12,1.7,1.7,0,0,0,.73-.74q.23-.36.57-1l.74-1.29.84-1.49.87-1.58.89-1.61.82-1.51.69-1.31q.31-.59.5-1a1.49,1.49,0,0,0,.19-1.05,1.75,1.75,0,0,0-.72-.79l-.65-.44.29-.52,1.14.66,2,1.08.73.4.95.51,1.06.57,1.05.58a7.3,7.3,0,0,1,3.27,3,3.41,3.41,0,0,1-.17,3.24,3.88,3.88,0,0,1-1.35,1.48,5.84,5.84,0,0,1-1.61.7,6.23,6.23,0,0,1-1.49.21c-.46,0-.78,0-1,0q.15.66.31,1.37t.29,1.36q.17.75.37,1.48a35.92,35.92,0,0,0,1.08,3.81A3.42,3.42,0,0,0,140.43,37l.39.24Zm-.8-13.88a4.71,4.71,0,0,0,.47-1.25,3.3,3.3,0,0,0,0-1.33,3,3,0,0,0-.59-1.28,4.3,4.3,0,0,0-1.36-1.11l-.6-.32-.48-.25-.43-.21-3.6,6.46.29.21.7.47q.24.16.56.34l.62.34a2.24,2.24,0,0,0,1.43.32,3.19,3.19,0,0,0,1.39-.5A5.32,5.32,0,0,0,139.73,23.87Z" style="fill:#d3cfca"/><path d="M157.65,48.57q-.54.3-1.05.63l-.91.57-.83.55-.94.64-.41-.5-.3-.36-.22-.24-6.11-6.3-.77-.78L145.3,42l-.86-.89.43-.42.67.55a1.35,1.35,0,0,0,.84.38,1.71,1.71,0,0,0,.92-.49l.82-.75,1.09-1,1.23-1.18,1.29-1.25,1.3-1.26,1.22-1.2,1.05-1.05.77-.8a1.49,1.49,0,0,0,.49-1,1.75,1.75,0,0,0-.46-1l-.5-.61.43-.42q.43.48.86.92l1.53,1.57.59.61,1.12,1.14,1.25,1.27,1,1,1.41,1.44q.55.55.87.85l.48.42.23.17q-.31.3-.57.58c-.15.17-.29.32-.43.45a1.87,1.87,0,0,0-.26.28l-.5.53a6.31,6.31,0,0,0-.48.55q-.27.3-.52.6l-.43-.44a13.66,13.66,0,0,0,.81-1.32,2.06,2.06,0,0,0,.27-1,1.75,1.75,0,0,0-.31-.91,7.58,7.58,0,0,0-.91-1.09L158.86,34q-.79.73-1.59,1.51l-3,2.87,2,2q.61.63,1.06,1a2.18,2.18,0,0,0,.82.52,1.29,1.29,0,0,0,1-.13,9.71,9.71,0,0,0,1.17-.78l.43.45q-.31.27-.63.58t-.68.63l-.77.75-.95.92q-.4.39-.68.69c-.22.21-.4.4-.55.57l-.43-.45a7.33,7.33,0,0,0,.83-1.17,1.23,1.23,0,0,0,.1-1.13,2.77,2.77,0,0,0-.5-.81q-.36-.42-.94-1l-2-2-2.2,2.13q-1,1-1.67,1.69a4.26,4.26,0,0,0-.49.61.73.73,0,0,0-.1.56,1.85,1.85,0,0,0,.37.71,12.06,12.06,0,0,0,.9,1l1.64,1.69a7.76,7.76,0,0,0,1.32,1.14,2.43,2.43,0,0,0,1.12.4,2.71,2.71,0,0,0,1.18-.2q.63-.24,1.51-.67Z" style="fill:#d3cfca"/><path d="M168.52,65.52a4.5,4.5,0,0,1-2.23.59,4.73,4.73,0,0,1-2.06-.51,6.21,6.21,0,0,1-1.76-1.33,8.87,8.87,0,0,1-1.35-1.88,11.16,11.16,0,0,1-.9-2.06,6.47,6.47,0,0,0-.43-1.18l-.29-.51c-.09-.14-.17-.27-.24-.37l-.21-.29.48-.37.38-.28.28-.21.52-.4q.42-.32.87-.7l1.18-.93.29.55q-.55.59-1,1.19a4.14,4.14,0,0,0-.72,1.33,3.77,3.77,0,0,0-.12,1.67A6.57,6.57,0,0,0,162,62a5.29,5.29,0,0,0,1,1.35,3.06,3.06,0,0,0,1.07.68,2.31,2.31,0,0,0,1.09.12,3,3,0,0,0,1-.33,2.26,2.26,0,0,0,.95-.89,3.67,3.67,0,0,0,.4-1.23,7.47,7.47,0,0,0,.06-1.51q0-.82-.07-1.72t-.07-1.87a6.66,6.66,0,0,1,.15-1.69,4,4,0,0,1,.67-1.48,4.17,4.17,0,0,1,1.45-1.2,4.07,4.07,0,0,1,1.4-.43,3.83,3.83,0,0,1,1.69.17,5.16,5.16,0,0,1,1.76,1,7.57,7.57,0,0,1,1.65,2.19q.27.5.47,1c.13.31.25.61.35.9s.21.54.3.78a4.24,4.24,0,0,0,.27.63,3.1,3.1,0,0,0,.41.62,1.78,1.78,0,0,0,.2.22l-.47.23-.63.34-.94.52-.89.52-.93.58L174,61l.51-.41a6.7,6.7,0,0,0,.78-.76,2.91,2.91,0,0,0,.7-2.37,5,5,0,0,0-.62-1.75,4.17,4.17,0,0,0-1.64-1.79,2,2,0,0,0-2,.07,2.51,2.51,0,0,0-.94.82,3.08,3.08,0,0,0-.43,1.11,6,6,0,0,0-.08,1.41q0,.78.1,1.69.09,1.12.12,2.11a8.14,8.14,0,0,1-.13,1.83,4.08,4.08,0,0,1-.6,1.49A3.41,3.41,0,0,1,168.52,65.52Z" style="fill:#d3cfca"/><path d="M182,86.19a8.66,8.66,0,0,0,.9-.34,6.36,6.36,0,0,0,.73-.35,1.87,1.87,0,0,0,.54-.43,1.55,1.55,0,0,0,.32-.55,1.81,1.81,0,0,0,.07-.63,4.79,4.79,0,0,0-.11-.79L184.2,82q-.09-.42-.19-.81t-.17-.72q-.1-.37-.18-.69l-1,.2-1.8.37-2.12.45-2,.43-1.76.38-1.66.37-1.45.34-1.08.27a1.48,1.48,0,0,0-.87.51,1.75,1.75,0,0,0-.14,1.05l.09,1-.58.13q-.15-.7-.27-1.36c-.08-.39-.17-.79-.25-1.21s-.16-.79-.23-1.12-.16-.7-.26-1.12-.19-.82-.28-1.21-.22-.9-.32-1.37l.58-.13.32.91a1.91,1.91,0,0,0,.54.91,1.46,1.46,0,0,0,1,.1l1.09-.2,1.46-.29,1.67-.35,1.76-.38,2-.44,2.12-.47,1.78-.4,1-.23c0-.2-.08-.42-.12-.66s-.09-.43-.14-.68-.1-.51-.16-.77q-.25-1.16-.46-1.84a1.59,1.59,0,0,0-.86-1,1.85,1.85,0,0,0-.67-.17,6.33,6.33,0,0,0-.81,0,8.47,8.47,0,0,0-1,.06l-.13-.61L180,71l1.13-.2,1.06-.18.7-.15.47-.08.08.37a.6.6,0,0,0-.27.39,2.94,2.94,0,0,0,0,1.13c0,.14.08.41.16.81l.29,1.43q.17.83.38,1.79l.41,1.86.78,3.59q.32,1.49.52,2.16a4.92,4.92,0,0,0,.25.74,1.45,1.45,0,0,0,.23.38.5.5,0,0,0,.2.15l.17,0,.08.37-.49.11-.42.1-.32.08-1,.26q-.57.14-1.07.29l-1.2.33Z" style="fill:#d3cfca"/><circle cx="97.21" cy="97.21" r="66.1" style="fill:none;stroke:#d3cfca;stroke-miterlimit:10;stroke-width:2.11991170906242px"/><path d="M17,109.06a3.87,3.87,0,0,1-1.41-.11,3.31,3.31,0,0,1-2.08-1.62,3.56,3.56,0,0,1-.43-1.41,3.77,3.77,0,0,1,.11-1.43,3.44,3.44,0,0,1,.6-1.19,3.25,3.25,0,0,1,1-.85,3.57,3.57,0,0,1,1.35-.4,3.38,3.38,0,0,1,3.37,1.79,3.65,3.65,0,0,1,.41,1.37,4.38,4.38,0,0,1-.09,1.55,3,3,0,0,1-.57,1.16,2.88,2.88,0,0,1-1,.77A3.79,3.79,0,0,1,17,109.06Zm-.36-1.32a5.89,5.89,0,0,0,1.05-.21,3.42,3.42,0,0,0,1-.46,2.29,2.29,0,0,0,.7-.75,1.76,1.76,0,0,0,.19-1.08,1.92,1.92,0,0,0-.87-1.5,3.38,3.38,0,0,0-2.19-.35,5.7,5.7,0,0,0-1.29.27,3.18,3.18,0,0,0-1,.53,2.08,2.08,0,0,0-.6.77,2,2,0,0,0-.14,1,2,2,0,0,0,.33,1,1.77,1.77,0,0,0,.69.57,2.74,2.74,0,0,0,1,.24A6.57,6.57,0,0,0,16.64,107.74Z" style="fill:#d3cfca"/><path d="M15.91,120.53l-.08-.24-.08-.28-.09-.36-.09-.39a1.87,1.87,0,0,1,0-.3,1,1,0,0,1,0-.24,1.06,1.06,0,0,1,.07-.23,3.56,3.56,0,0,1,.17-.36,3.78,3.78,0,0,1,.21-.34l.27-.37.36-.46.29-.36.29-.35.25-.31a1.65,1.65,0,0,0,.15-.22.32.32,0,0,0,0-.18c0-.07,0-.17,0-.28l0-.15,0-.16c0-.06,0-.13,0-.19l-.44.11-.56.14-.55.14-.43.12a.69.69,0,0,0-.35.2.52.52,0,0,0-.06.38l0,.4-.24.06q-.06-.27-.11-.53l-.11-.47-.1-.45-.11-.44-.11-.46c0-.16-.09-.33-.13-.5l.24-.06.12.33a.56.56,0,0,0,.22.31.7.7,0,0,0,.43,0l.45-.09.6-.13.68-.16.72-.17.73-.17.68-.17.59-.15.43-.12a.62.62,0,0,0,.37-.23.73.73,0,0,0,0-.44l0-.32.24-.06c0,.18.07.36.11.53l.21.9.08.33.11.43.12.48.11.48a3,3,0,0,1,0,1.82,1.4,1.4,0,0,1-1,.84,1.59,1.59,0,0,1-.82,0,2.37,2.37,0,0,1-.66-.3,2.52,2.52,0,0,1-.48-.39l-.26-.3-.33.47-.33.47-.35.52a14.43,14.43,0,0,0-.86,1.38,1.39,1.39,0,0,0-.22.8l0,.18Zm4-4.08a1.91,1.91,0,0,0,.51-.2,1.36,1.36,0,0,0,.41-.36,1.24,1.24,0,0,0,.23-.53,1.76,1.76,0,0,0,0-.72l-.07-.27-.06-.21c0-.07,0-.13-.05-.19l-3,.69s0,.1,0,.15l.05.34q0,.12.05.26l.07.28a.93.93,0,0,0,.3.52,1.31,1.31,0,0,0,.54.28A2.18,2.18,0,0,0,19.9,116.45Z" style="fill:#d3cfca"/><path d="M22.12,129.44a.47.47,0,0,0-.24-.27.71.71,0,0,0-.39,0l-.56.19-.77.29-.41.15-.32.13a10.85,10.85,0,0,0-.54-1,8.79,8.79,0,0,1-.65-1.37,5.71,5.71,0,0,1-.39-1.67,3.3,3.3,0,0,1,.19-1.37,2.7,2.7,0,0,1,.71-1,3.68,3.68,0,0,1,1.19-.71,4,4,0,0,1,1.39-.27,3.07,3.07,0,0,1,1.33.29,3.57,3.57,0,0,1,1.17.91,5.17,5.17,0,0,1,.91,1.58c.1.26.17.48.23.67l.15.51.1.41a2.89,2.89,0,0,0,.11.33,1.81,1.81,0,0,0,.16.34l.09.11-.39.15-.49.19-.43.18-.41.19-.09-.25L24,128a2,2,0,0,0,.45-.34.93.93,0,0,0,.24-.47,1.9,1.9,0,0,0,0-.69,5.23,5.23,0,0,0-.29-1,3.71,3.71,0,0,0-.52-.93,2.27,2.27,0,0,0-.79-.66,2.53,2.53,0,0,0-1.09-.25,3.72,3.72,0,0,0-1.4.28,3.44,3.44,0,0,0-1.91,1.47,2.51,2.51,0,0,0,0,2.18q.38,1,.8,1a1,1,0,0,0,.38-.06l.56-.21.29-.11.19-.08.14-.07.11-.06a.58.58,0,0,0,.24-.25.65.65,0,0,0,0-.37l-.09-.34.23-.09c.06.17.12.34.18.51s.1.29.16.45l.17.44.16.43.18.44.2.5-.23.09Z" style="fill:#d3cfca"/><path d="M24.51,140.37l-.2-.4-.2-.38-.21-.4-.23-.41-.24-.42-.26-.46.22-.12.13.2a1,1,0,0,0,.26.3.25.25,0,0,0,.27,0,.84.84,0,0,0,.16-.14l.25-.28.3-.35.3-.36.25-.31.16-.2-.13-.24-.17-.32-.24-.45-.22-.39-.16-.29-.13-.23-.55.06-.62.07-.55.08a1.34,1.34,0,0,0-.33.09.32.32,0,0,0-.17.25.93.93,0,0,0,.1.46l.09.22-.22.12-.21-.4-.17-.36-.17-.33-.15-.27-.16-.27-.17-.29.22-.12.13.18a.6.6,0,0,0,.35.24,1.47,1.47,0,0,0,.49,0l.39,0,.66-.06.8-.08.81-.08,1.16-.11,1.15-.11.93-.09.51-.06.2.36-.19.23-.34.41-.43.53-.48.59-.47.58-.41.51-.51.62-.46.57-.38.47-.26.34a3.65,3.65,0,0,0-.24.34,1.49,1.49,0,0,0-.13.26.56.56,0,0,0,0,.21.53.53,0,0,0,0,.2l.07.2Zm2.75-5.94-2.43.26.89,1.65Z" style="fill:#d3cfca"/><path d="M35.8,145.51a.5.5,0,0,0-.33-.18.78.78,0,0,0-.47.16l-.93.64-1.07.76-1,.72-.74.53-.57.41-.47.34-.18-.25.11-.44q.1-.4.24-1l.32-1.36.35-1.52q.09-.45.22-1l.24-1,.25-1.1-2,1.44-1,.71-.84.63a.62.62,0,0,0-.27.43,1,1,0,0,0,.14.5l.14.24-.2.14-.22-.32-.22-.31-.23-.33-.24-.33-.22-.29-.21-.28.2-.14.23.27a.49.49,0,0,0,.34.18.78.78,0,0,0,.47-.16l.93-.64,1.08-.77.61-.44.57-.41.48-.35.36-.28a.5.5,0,0,0,.22-.37.76.76,0,0,0-.14-.45l-.16-.25.2-.14.09.12.13.18.18.26.21.3.21.3.25.34.14.18-.77,3.32-.21.92q-.11.5-.22.94l-.24,1,1.31-.94,1-.71.84-.63a.61.61,0,0,0,.28-.41,1,1,0,0,0-.15-.51l-.14-.24.2-.14.22.31.21.31.24.34.23.33.21.28.21.28-.2.14Z" style="fill:#d3cfca"/><path d="M35,154.31l-.32-.36-.3-.34-.31-.34-.32-.35-.35-.38.18-.16.26.24a.56.56,0,0,0,.34.17.71.71,0,0,0,.39-.19l.35-.29.46-.4.52-.46.55-.49.55-.5.52-.48.45-.42.33-.31a.69.69,0,0,0,.23-.36.55.55,0,0,0-.13-.35l-.21-.29.18-.16.34.39.31.36.3.34.31.34.33.35.37.39-.18.16-.3-.27a.47.47,0,0,0-.34-.16.75.75,0,0,0-.38.18l-.35.29-.46.4-.53.47-.55.5-.55.49-.52.47-.45.42-.33.31a.7.7,0,0,0-.21.35.52.52,0,0,0,.13.36l.23.33-.18.16Z" style="fill:#d3cfca"/><path d="M42.81,161.69l-.69-.42a7.52,7.52,0,0,1-1.15-.89,5.43,5.43,0,0,1-1.07-1.29,3.65,3.65,0,0,1-.48-1.35,2.94,2.94,0,0,1,.12-1.33,3.75,3.75,0,0,1,1.87-2.08,3.19,3.19,0,0,1,1.25-.3,3.38,3.38,0,0,1,1.52.32,5.51,5.51,0,0,1,1.41.94l.45.43.3.31.22.25.24.24a1.82,1.82,0,0,0,.29.23l0,0,0,0h0l-.29.32-.34.38-.3.35-.29.36-.2-.18.14-.22a2,2,0,0,0,.15-.28,1.69,1.69,0,0,0,.1-.32,1,1,0,0,0,0-.35,1.33,1.33,0,0,0-.27-.63,3.76,3.76,0,0,0-.55-.62,3.67,3.67,0,0,0-.87-.59,2.3,2.3,0,0,0-1-.23,2.43,2.43,0,0,0-1.07.26,3.7,3.7,0,0,0-1.11.88,4.77,4.77,0,0,0-.71,1,2.67,2.67,0,0,0-.3,1.07,2.42,2.42,0,0,0,.2,1.09,3.13,3.13,0,0,0,.81,1.07,3.66,3.66,0,0,0,.7.5,1.41,1.41,0,0,0,.74.19,1.24,1.24,0,0,0,.34-.07l.33-.13.29-.15.22-.13.19.17-.92.75Z" style="fill:#d3cfca"/><path d="M60.65,166.33a.47.47,0,0,0-.38-.05.75.75,0,0,0-.31.28l-.25.38-.32.52-.36.6-.38.64-.38.63-.36.6-.31.53-.22.4a.69.69,0,0,0-.1.4.52.52,0,0,0,.23.31l.33.25-.13.21-.46-.29-.41-.25-.4-.24-.39-.23-.41-.24-.46-.26.13-.21.33.15a.56.56,0,0,0,.37.06.71.71,0,0,0,.31-.29l.25-.38.32-.52.36-.59.37-.61.27-.46.37-.63.35-.59.2-.34-.86.57-.79.52-.77.51-.95.63-.83.56-.63.43-.36.25-.23-.14c0-.05,0-.19,0-.42s0-.49.08-.81.07-.66.1-1l.1-1.07.09-.9c0-.32.06-.63.09-.92s.07-.67.11-1l-1.23,2.06-.63,1q-.28.48-.52.91a.63.63,0,0,0-.09.5.86.86,0,0,0,.32.38l.23.17-.13.21-.32-.2-.32-.2L51,168l-.35-.2-.31-.18L50,167.4l.13-.21.28.13a.56.56,0,0,0,.41.06.74.74,0,0,0,.37-.32q.31-.46.61-1l.68-1.14.39-.65.36-.61.31-.52.21-.38a.5.5,0,0,0,.06-.43.77.77,0,0,0-.3-.36l-.24-.17.13-.21.13.07.2.12L54,162l.31.19.31.19.44.26.19.1c0,.35-.08.69-.12,1s-.07.62-.1,1l-.09.94-.1,1c0,.32-.06.6-.08.85s-.05.57-.08.83l.79-.53.72-.48.72-.48.79-.52.8-.53.87-.57.23.15.4.24.27.16.3.17.27.16.2.12.14.09-.13.21Z" style="fill:#d3cfca"/><path d="M70.11,170.51a.52.52,0,0,0-.38,0,.76.76,0,0,0-.32.38l-.18.38-.17.4-.22.51-.31.73-.36.85c-.1.23-.19.42-.27.59a2.47,2.47,0,0,1-.5.68,2,2,0,0,1-.73.44,2.42,2.42,0,0,1-1,.11,3.73,3.73,0,0,1-1.19-.31,5,5,0,0,1-1.3-.75,2.38,2.38,0,0,1-.66-.83,1.79,1.79,0,0,1-.15-.89,3.19,3.19,0,0,1,.22-.92c.08-.21.18-.46.31-.74l.47-1.09.26-.62.17-.4.11-.26.08-.22a.7.7,0,0,0,.05-.42.56.56,0,0,0-.27-.26l-.31-.17.1-.23.47.21.43.19.42.18.42.18.45.18.5.2-.1.23-.38-.12a.52.52,0,0,0-.39,0,.73.73,0,0,0-.26.32l-.15.31-.15.33-.17.39-.22.51-.25.58-.18.43-.14.35-.13.35a2,2,0,0,0-.05,1.6,2.17,2.17,0,0,0,1.18,1,3.3,3.3,0,0,0,.79.23,1.64,1.64,0,0,0,.7,0,1.47,1.47,0,0,0,.61-.36,2.51,2.51,0,0,0,.51-.73l.16-.33.14-.3L68,173l.19-.46.23-.54.19-.46.17-.42.17-.43a.66.66,0,0,0,0-.5.92.92,0,0,0-.4-.36l-.24-.13.1-.22.38.17.37.17.38.16.37.16.33.13.33.13-.1.23Z" style="fill:#d3cfca"/><path d="M76.78,177.18a1.84,1.84,0,0,1-.46.82,2,2,0,0,1-.74.46,2.59,2.59,0,0,1-.89.14,3.65,3.65,0,0,1-.94-.14,4.56,4.56,0,0,1-.86-.32,2.67,2.67,0,0,0-.47-.21l-.23-.06-.18,0-.15,0c0-.09,0-.17,0-.25s0-.13,0-.19,0-.11,0-.14l0-.27c0-.14,0-.3,0-.46l.06-.61.24.07c0,.22,0,.43.06.64a1.7,1.7,0,0,0,.19.59,1.53,1.53,0,0,0,.46.51,2.69,2.69,0,0,0,.87.39,2.14,2.14,0,0,0,.68.1,1.24,1.24,0,0,0,.51-.12,1,1,0,0,0,.35-.29,1.27,1.27,0,0,0,.19-.4.92.92,0,0,0,0-.53,1.52,1.52,0,0,0-.25-.47,3,3,0,0,0-.43-.45l-.53-.47-.57-.51a2.69,2.69,0,0,1-.46-.53,1.65,1.65,0,0,1-.25-.62,1.71,1.71,0,0,1,.06-.77,1.68,1.68,0,0,1,.27-.53,1.56,1.56,0,0,1,.54-.45,2.13,2.13,0,0,1,.81-.22,3.11,3.11,0,0,1,1.11.14l.42.14.36.16.31.13.26.1a1.29,1.29,0,0,0,.3.05h.12c0,.07,0,.14-.07.2l-.08.28-.12.43c0,.14-.07.28-.1.41s-.07.29-.1.44l-.24-.07,0-.27a2.67,2.67,0,0,0,0-.45,1.22,1.22,0,0,0-.13-.46,1.25,1.25,0,0,0-.36-.42,2.07,2.07,0,0,0-.69-.32,1.71,1.71,0,0,0-1,0,.83.83,0,0,0-.56.61,1,1,0,0,0,0,.51,1.25,1.25,0,0,0,.2.44,2.5,2.5,0,0,0,.39.43l.53.46.66.57a3.3,3.3,0,0,1,.5.56,1.68,1.68,0,0,1,.27.6A1.38,1.38,0,0,1,76.78,177.18Z" style="fill:#d3cfca"/><path d="M87.29,181.16l-.48-.08-.46-.08-.44-.06-.47-.07-.51-.07,0-.24.35,0a.55.55,0,0,0,.37-.08.7.7,0,0,0,.18-.39l.07-.35.08-.43c0-.17.07-.38.11-.64l.16-1-.3,0-.47-.08-.54-.09-.51-.08-.47-.07-.51-.08-.46-.07-.3,0-.11.71c0,.24-.07.46-.1.67l-.08.59c0,.18,0,.33-.05.44a.7.7,0,0,0,.06.4.52.52,0,0,0,.32.2l.39.11,0,.24-.53-.09-.47-.08-.45-.08-.45-.07-.47-.07-.51-.07,0-.24.35,0a.55.55,0,0,0,.37-.08.69.69,0,0,0,.18-.39c0-.12.05-.26.09-.45l.1-.6c0-.22.08-.45.11-.69l.11-.73.12-.73.1-.7.08-.61c0-.18,0-.34.06-.45a.69.69,0,0,0-.05-.42.55.55,0,0,0-.33-.19l-.34-.09,0-.24.51.09.47.08.45.07.45.07.48.06.53.07,0,.24-.4,0a.47.47,0,0,0-.37.09.76.76,0,0,0-.18.38q-.07.32-.16.89t-.2,1.23l.29,0,.45.07.5.08.47.07.52.08.55.08.48.07.3,0,.13-.8c0-.22.06-.41.09-.58l.06-.42c0-.12,0-.23,0-.34a.71.71,0,0,0-.05-.42.56.56,0,0,0-.33-.19l-.34-.09,0-.24.51.09.47.08.45.07.45.07.48.07.53.07,0,.24-.41,0A.46.46,0,0,0,88,175a.77.77,0,0,0-.17.38c0,.11-.05.26-.09.45l-.1.6c0,.22-.08.45-.11.7l-.11.73-.11.73q-.06.36-.1.69l-.08.61c0,.18,0,.34-.06.45a.72.72,0,0,0,.05.4.5.5,0,0,0,.32.2l.4.11,0,.24Z" style="fill:#d3cfca"/><path d="M98.81,181.74h-.92l-.4,0-.3,0a1.05,1.05,0,0,1-.23-.07,1.09,1.09,0,0,1-.21-.13,3.19,3.19,0,0,1-.3-.25,3.59,3.59,0,0,1-.27-.29l-.28-.36-.35-.47-.27-.37-.26-.37-.24-.32a1.75,1.75,0,0,0-.18-.2.32.32,0,0,0-.17-.07l-.28,0h-.52c0,.12,0,.27,0,.45s0,.38,0,.57,0,.38,0,.57,0,.33,0,.45a.69.69,0,0,0,.11.39.52.52,0,0,0,.35.16l.4.06v.25l-.54,0-.48,0-.46,0H91.53v-.24l.35,0a.55.55,0,0,0,.36-.13.7.7,0,0,0,.13-.41c0-.12,0-.27,0-.45l0-.61c0-.22,0-.45,0-.7s0-.49,0-.74l0-.75q0-.37,0-.7c0-.22,0-.42,0-.61s0-.33,0-.45a.62.62,0,0,0-.13-.42.73.73,0,0,0-.41-.15l-.32,0v-.24l.54,0,.92,0h1.77a3,3,0,0,1,1.75.47,1.4,1.4,0,0,1,.55,1.21,1.61,1.61,0,0,1-.21.79,2.41,2.41,0,0,1-.46.56,2.52,2.52,0,0,1-.5.36l-.36.18L96,179l.37.44.41.47a14.72,14.72,0,0,0,1.11,1.18,1.4,1.4,0,0,0,.71.42h.19Zm-2.92-4.9a2,2,0,0,0-.07-.55,1.36,1.36,0,0,0-.24-.49,1.23,1.23,0,0,0-.46-.35,1.76,1.76,0,0,0-.71-.15h-.69l-.09,3,.15,0,.34,0,.27,0h.29a.93.93,0,0,0,.58-.16,1.31,1.31,0,0,0,.41-.44A2.2,2.2,0,0,0,95.89,176.84Z" style="fill:#d3cfca"/><path d="M108.87,177.45a3.88,3.88,0,0,1-.11,1.41,3.32,3.32,0,0,1-1.62,2.08,3.57,3.57,0,0,1-1.41.43,3.74,3.74,0,0,1-1.43-.12,3.42,3.42,0,0,1-1.19-.6,3.24,3.24,0,0,1-.84-1,3.54,3.54,0,0,1-.4-1.35,3.38,3.38,0,0,1,1.8-3.37,3.67,3.67,0,0,1,1.37-.4,4.4,4.4,0,0,1,1.55.09,3,3,0,0,1,1.16.57,2.88,2.88,0,0,1,.77,1A3.79,3.79,0,0,1,108.87,177.45Zm-1.32.36a5.8,5.8,0,0,0-.21-1.05,3.41,3.41,0,0,0-.46-1,2.3,2.3,0,0,0-.75-.7,1.77,1.77,0,0,0-1.08-.2,1.92,1.92,0,0,0-1.5.87,3.38,3.38,0,0,0-.36,2.19,5.66,5.66,0,0,0,.27,1.29,3.16,3.16,0,0,0,.53,1,2.1,2.1,0,0,0,.77.6,2,2,0,0,0,1,.14,2,2,0,0,0,1-.33,1.78,1.78,0,0,0,.57-.69,2.72,2.72,0,0,0,.24-1A6.53,6.53,0,0,0,107.55,177.8Z" style="fill:#d3cfca"/><path d="M119.66,175.13a3.88,3.88,0,0,1,.08,1.41,3.32,3.32,0,0,1-1.32,2.28,3.56,3.56,0,0,1-1.34.61,3.76,3.76,0,0,1-1.43.08,3.41,3.41,0,0,1-1.26-.44,3.23,3.23,0,0,1-1-.89,3.53,3.53,0,0,1-.58-1.28,3.37,3.37,0,0,1,1.32-3.58,3.64,3.64,0,0,1,1.3-.58,4.4,4.4,0,0,1,1.55-.12,3,3,0,0,1,1.23.41,2.88,2.88,0,0,1,.89.86A3.8,3.8,0,0,1,119.66,175.13Zm-1.26.54a5.88,5.88,0,0,0-.35-1,3.4,3.4,0,0,0-.59-.91,2.31,2.31,0,0,0-.84-.59,1.77,1.77,0,0,0-1.1,0,1.92,1.92,0,0,0-1.37,1.07,3.38,3.38,0,0,0-.05,2.22,5.68,5.68,0,0,0,.44,1.24,3.16,3.16,0,0,0,.66.9,2.09,2.09,0,0,0,.85.49,2.22,2.22,0,0,0,1.95-.45,1.78,1.78,0,0,0,.47-.76,2.76,2.76,0,0,0,.11-1A6.48,6.48,0,0,0,118.4,175.66Z" style="fill:#d3cfca"/><path d="M130,168.18a.47.47,0,0,0-.27.27.75.75,0,0,0,0,.42l.16.43.22.57.26.65.28.69.28.69.26.65.23.57.18.42a.69.69,0,0,0,.25.32.52.52,0,0,0,.38,0l.4-.11.09.23-.5.19-.45.18-.43.17-.42.17-.44.18-.49.21-.09-.23.32-.17a.55.55,0,0,0,.28-.26.7.7,0,0,0,0-.43l-.16-.43-.22-.57-.25-.64-.27-.66-.2-.49-.27-.68-.26-.63-.15-.37q0,.51-.06,1t-.07.94q0,.5-.06.92c0,.39-.05.77-.07,1.14s0,.7-.06,1l0,.76c0,.21,0,.35,0,.44l-.25.1-.31-.29-.6-.55-.76-.7-.79-.73L125,173l-.68-.62-.73-.69.89,2.23.45,1.13q.21.51.41,1a.64.64,0,0,0,.34.37.87.87,0,0,0,.5,0l.27-.08.09.23-.36.13-.35.14-.38.15-.37.16-.33.14-.32.14-.09-.23.27-.14a.56.56,0,0,0,.3-.29.74.74,0,0,0,0-.49q-.18-.53-.39-1.07l-.49-1.24-.28-.7-.26-.66-.23-.56-.18-.4a.51.51,0,0,0-.31-.3.78.78,0,0,0-.47,0l-.28.09-.09-.23.14-.05.22-.09.3-.11.34-.13.34-.14.47-.19.2-.09.75.72.7.66.69.64.72.67.63.58.62.57c0-.32,0-.63.05-.95s0-.56.05-.87,0-.6.06-.86,0-.6.06-.94l.06-1,.07-1,.26-.09.43-.17.3-.12.32-.13.29-.12.21-.09.15-.06.09.23Z" style="fill:#d3cfca"/><path d="M148.33,162.3c.06.16.12.31.19.46l.18.4.18.37.21.42-.23.14-.16.1-.11.07-2.91,2.13-.36.27-.38.28-.41.3-.14-.2.26-.24a.55.55,0,0,0,.2-.32.7.7,0,0,0-.15-.4l-.26-.38-.35-.5-.41-.57-.44-.6-.44-.6-.42-.57-.37-.49-.28-.36a.61.61,0,0,0-.36-.25.72.72,0,0,0-.42.13l-.28.17-.14-.2.42-.3.73-.53.28-.2.53-.39.59-.43.46-.33.67-.49.39-.31.2-.17.08-.09.2.26.16.2.1.12.19.23.2.23.21.24-.21.15a5.41,5.41,0,0,0-.49-.41.84.84,0,0,0-.39-.17.72.72,0,0,0-.39.07,3.14,3.14,0,0,0-.5.31l-1.5,1.1.52.73,1,1.37.94-.69.49-.37a.88.88,0,0,0,.26-.3.53.53,0,0,0,0-.43,4.13,4.13,0,0,0-.25-.52l.21-.15.2.29.22.31.26.35.32.44.24.31.2.25-.21.15a3.08,3.08,0,0,0-.43-.4.5.5,0,0,0-.45-.11,1.15,1.15,0,0,0-.36.16l-.47.32-.94.69.74,1q.33.45.59.77a1.78,1.78,0,0,0,.22.23.3.3,0,0,0,.22.07.76.76,0,0,0,.31-.11,4.9,4.9,0,0,0,.46-.31l.78-.57a3.15,3.15,0,0,0,.54-.47,1,1,0,0,0,.23-.43,1.13,1.13,0,0,0,0-.49q-.06-.27-.19-.65Z" style="fill:#d3cfca"/><path d="M157.28,156.64l-.34.31-.33.3-.32.31-.38.37-.44.43-.17-.18.21-.22a.84.84,0,0,0,.13-.22.2.2,0,0,0,0-.24,1,1,0,0,0-.44-.18l-1-.22-.35-.07-.42-.08-.52-.09c0,.13,0,.27,0,.41s0,.26,0,.41,0,.3,0,.45q.05.58.12,1a1.1,1.1,0,0,0,.17.51.24.24,0,0,0,.28.08,1.19,1.19,0,0,0,.29-.16l.2-.16.17.18-.33.29-.3.28-.3.27-.27.26-.26.25-.29.28-.17-.18.14-.16a.89.89,0,0,0,.2-.35,2.09,2.09,0,0,0,.05-.51q0-.27,0-.65c0-.25,0-.56-.07-.93,0-.15,0-.32,0-.51l0-.54q0-.29-.06-.59l-.63-.13-.59-.12-.6-.13-.52-.1-.51-.1-.42-.08-.26,0a1.52,1.52,0,0,0-.32,0,.65.65,0,0,0-.27.13l-.11.09-.17-.18.37-.33.34-.31.33-.31.37-.35.35-.34.36-.36.17.18-.19.2a1.15,1.15,0,0,0-.17.26.19.19,0,0,0,0,.22,1,1,0,0,0,.42.16l.76.16.4.09.37.07.38.07c0-.13,0-.25,0-.39s0-.24,0-.37,0-.26,0-.38c0-.29-.06-.54-.1-.74a.9.9,0,0,0-.18-.44.24.24,0,0,0-.28-.06,1,1,0,0,0-.27.15l-.19.17-.17-.18.32-.29.3-.27.29-.28.27-.25.25-.25.26-.26.17.18-.15.15a.83.83,0,0,0-.22.5,2.7,2.7,0,0,0,0,.64c0,.25,0,.52.07.82,0,.14,0,.31,0,.5s0,.37,0,.54l0,.61.63.12.6.12.6.12.75.15.56.11.41.07.3,0a1.87,1.87,0,0,0,.45,0,.72.72,0,0,0,.31-.14l.11-.09.17.18Z" style="fill:#d3cfca"/><path d="M160.34,145.57l-.34-.2-.3-.15a.79.79,0,0,0-.28-.06.65.65,0,0,0-.26,0,.75.75,0,0,0-.22.14,1.88,1.88,0,0,0-.23.24l-.29.35-.22.27-.19.24-.18.23.32.27.57.49.68.57.64.53.57.47.54.44.48.38.36.28a.61.61,0,0,0,.38.15.72.72,0,0,0,.38-.22l.29-.28.19.16-.37.43-.33.39-.3.36-.3.36-.32.4-.36.45-.19-.16.21-.33a.78.78,0,0,0,.16-.4.6.6,0,0,0-.23-.35l-.34-.3-.46-.4-.54-.45-.57-.47-.65-.53-.69-.57-.58-.47-.33-.26-.18.2-.19.22-.21.25q-.31.38-.48.61a.65.65,0,0,0-.1.53.76.76,0,0,0,.11.26,2.64,2.64,0,0,0,.2.27,3.76,3.76,0,0,0,.26.3l-.16.2-.38-.35-.35-.32-.33-.3-.23-.19-.15-.13.1-.12a.25.25,0,0,0,.19,0,1.19,1.19,0,0,0,.35-.3l.22-.26.39-.45.48-.57.5-.6,1-1.16c.27-.32.46-.56.57-.71a2,2,0,0,0,.18-.27.61.61,0,0,0,.06-.17.21.21,0,0,0,0-.1l0-.06.1-.12.16.13.14.11.11.08.34.27.37.27.41.3Z" style="fill:#d3cfca"/><path d="M170.37,139.61l-.12.22-.15.25-.2.32-.22.34a2.08,2.08,0,0,1-.19.24,1.11,1.11,0,0,1-.18.16,1.07,1.07,0,0,1-.22.11l-.37.13-.39.08-.45.06-.58.06-.46,0-.46,0-.4,0-.26,0a.33.33,0,0,0-.14.11l-.18.22-.09.13-.09.14-.11.16.38.25.48.31.48.3.39.23a.69.69,0,0,0,.39.11.52.52,0,0,0,.31-.22l.26-.31.21.13-.3.45-.26.4-.25.39-.24.38-.25.4-.27.44-.21-.13.16-.32a.56.56,0,0,0,.08-.37.69.69,0,0,0-.28-.32l-.37-.26-.51-.34-.59-.38-.62-.4-.63-.41-.6-.38-.52-.32-.39-.23a.61.61,0,0,0-.43-.11.72.72,0,0,0-.34.27l-.2.26-.21-.13.3-.45.5-.77.18-.29.23-.37.26-.42.27-.42a3,3,0,0,1,1.31-1.26,1.4,1.4,0,0,1,1.32.16,1.58,1.58,0,0,1,.57.59,2.41,2.41,0,0,1,.24.68,2.57,2.57,0,0,1,0,.62c0,.19,0,.32,0,.4l.57-.09.57-.08.62-.11a14.52,14.52,0,0,0,1.59-.34,1.41,1.41,0,0,0,.73-.39l.11-.15Zm-5.71,0a2,2,0,0,0-.5-.23,1.37,1.37,0,0,0-.55,0,1.23,1.23,0,0,0-.54.21,1.76,1.76,0,0,0-.49.53l-.15.24-.11.19-.1.17,2.55,1.65.1-.11.21-.27.15-.22.16-.24a.92.92,0,0,0,.17-.58,1.31,1.31,0,0,0-.17-.58A2.2,2.2,0,0,0,164.67,139.56Z" style="fill:#d3cfca"/><path d="M175,130.27l-.2.4-.19.38-.2.41-.2.43-.19.44-.22.48-.22-.11.08-.22a1,1,0,0,0,.08-.39.25.25,0,0,0-.16-.22l-.21,0-.37,0-.46,0-.46,0-.4,0h-.25l-.12.25-.16.32-.23.46-.19.4-.14.3-.11.24.37.41.42.46.39.39a1.31,1.31,0,0,0,.27.21.32.32,0,0,0,.3,0,1,1,0,0,0,.31-.35l.12-.2.22.1-.2.4-.18.35-.16.33-.13.28-.12.29-.13.31-.22-.11.07-.21a.61.61,0,0,0,0-.42,1.46,1.46,0,0,0-.27-.42l-.26-.29-.44-.49-.53-.6-.55-.61-.78-.87-.77-.86-.63-.7-.35-.38.18-.37.29,0,.53,0,.68,0,.76,0,.75,0,.65,0,.8,0,.73,0,.6,0h.85l.29,0a.56.56,0,0,0,.19-.09.53.53,0,0,0,.13-.15l.11-.17Zm-6.41,1.29,1.64,1.8.8-1.69Z" style="fill:#d3cfca"/><path d="M178.15,121.07q0,.24-.11.8a7.54,7.54,0,0,1-.35,1.41,5.47,5.47,0,0,1-.75,1.5,3.66,3.66,0,0,1-1,1,2.92,2.92,0,0,1-1.27.42,3.74,3.74,0,0,1-2.66-.87,3.18,3.18,0,0,1-.77-1,3.38,3.38,0,0,1-.32-1.52,5.5,5.5,0,0,1,.29-1.67q.12-.36.21-.59l.17-.4.14-.3c0-.09.08-.2.12-.32a1.86,1.86,0,0,0,.09-.36V119a0,0,0,0,0,0,0l.41.14.48.16.44.13.45.12-.08.25-.26,0-.32,0a1.73,1.73,0,0,0-.34,0,1,1,0,0,0-.33.13,1.33,1.33,0,0,0-.46.49,3.88,3.88,0,0,0-.34.75,3.63,3.63,0,0,0-.19,1,2.3,2.3,0,0,0,.18,1,2.44,2.44,0,0,0,.67.88,3.66,3.66,0,0,0,1.25.67,4.78,4.78,0,0,0,1.2.24,2.65,2.65,0,0,0,1.1-.15,2.4,2.4,0,0,0,.92-.62,3.14,3.14,0,0,0,.66-1.17,3.64,3.64,0,0,0,.17-.85,1.39,1.39,0,0,0-.12-.76,1.25,1.25,0,0,0-.19-.28,3.13,3.13,0,0,0-.25-.25l-.26-.21-.21-.15.08-.24,1.06.54Z" style="fill:#d3cfca"/><path d="M175.72,109.9l-.4,0H175a.77.77,0,0,0-.27.07.65.65,0,0,0-.21.15.75.75,0,0,0-.13.22,2,2,0,0,0-.09.32l-.09.44c0,.11,0,.23-.06.34s0,.21-.05.3,0,.2,0,.29l.41.09.74.16.87.18.82.16.72.14.69.13.6.11.45.07a.61.61,0,0,0,.41,0,.72.72,0,0,0,.22-.37l.13-.38.24,0c0,.19-.08.38-.12.55s-.07.33-.1.5-.07.33-.1.46l-.09.46-.09.5c0,.19-.07.38-.1.57l-.24,0,0-.39a.78.78,0,0,0-.05-.43.6.6,0,0,0-.37-.2l-.44-.1-.6-.13-.69-.14-.72-.14-.82-.16-.87-.17-.74-.14-.41-.08c0,.08,0,.17-.06.27l-.06.28c0,.1,0,.21-.07.32q-.1.48-.13.77a.66.66,0,0,0,.16.52.79.79,0,0,0,.22.17l.3.14.37.13,0,.25-.5-.13-.46-.11-.43-.11-.29-.06-.19,0,0-.15a.25.25,0,0,0,.17-.1,1.22,1.22,0,0,0,.17-.43l.07-.33.13-.58.15-.73.15-.77.3-1.48q.12-.61.16-.9a1.9,1.9,0,0,0,0-.32.58.58,0,0,0,0-.18.21.21,0,0,0-.05-.09l-.06,0,0-.15.2,0,.17,0,.13,0,.43.07.45.07.5.07Z" style="fill:#d3cfca"/><path d="M179.61,101.71a1.84,1.84,0,0,1,.9.29,1.94,1.94,0,0,1,.6.63,2.57,2.57,0,0,1,.31.85,3.62,3.62,0,0,1,0,.95,4.64,4.64,0,0,1-.15.91,2.71,2.71,0,0,0-.11.5q0,.14,0,.24c0,.07,0,.13,0,.18s0,.11,0,.15l-.25,0h-.34l-.27,0-.46,0-.61.06,0-.25.62-.18a1.71,1.71,0,0,0,.54-.3,1.55,1.55,0,0,0,.41-.55,2.69,2.69,0,0,0,.21-.93,2.15,2.15,0,0,0,0-.69,1.25,1.25,0,0,0-.22-.47,1,1,0,0,0-.35-.28,1.25,1.25,0,0,0-.43-.11.92.92,0,0,0-.52.09,1.51,1.51,0,0,0-.41.33,3.09,3.09,0,0,0-.36.51l-.36.61L178,105a2.75,2.75,0,0,1-.43.55,1.66,1.66,0,0,1-.56.36,1.71,1.71,0,0,1-.77.09,1.67,1.67,0,0,1-.58-.17,1.57,1.57,0,0,1-.54-.44,2.12,2.12,0,0,1-.37-.75,3.14,3.14,0,0,1-.08-1.12c0-.16,0-.3.06-.44s.05-.26.08-.39,0-.23.07-.33a1.91,1.91,0,0,0,0-.28,1.27,1.27,0,0,0,0-.3.71.71,0,0,0,0-.12l.21,0,.29,0,.44,0,.42,0h.45l0,.25-.27,0a2.85,2.85,0,0,0-.44.09,1.25,1.25,0,0,0-.43.22,1.27,1.27,0,0,0-.34.44,2,2,0,0,0-.18.74,1.72,1.72,0,0,0,.16,1,.83.83,0,0,0,.71.43,1,1,0,0,0,.51-.07,1.26,1.26,0,0,0,.4-.29,2.49,2.49,0,0,0,.34-.47l.34-.6q.22-.41.43-.76a3.4,3.4,0,0,1,.45-.6,1.68,1.68,0,0,1,.54-.38A1.4,1.4,0,0,1,179.61,101.71Z" style="fill:#d3cfca"/></svg>