<svg id="Layer_1" data-name="Layer 1" xmlns="http://www.w3.org/2000/svg" viewBox="0 0 10.91 11.86"><title>2.billing-icon_inactive</title><path d="M9.56,10.47,8.22,11.86l-.14-.14L7,10.61c-.13-.13-.13-.13-.26,0L5.48,11.86l-1.38-1.4L2.7,11.85,1.36,10.47,0,11.81V0L.1.13,1.21,1.24c.14.14.14.14.28,0L2.59.12,2.71,0,4.09,1.37,5.45,0l.14.13L6.7,1.25c.1.1.15.11.26,0C7.32.87,7.7.5,8.08.12L8.19,0,9.54,1.35,10.91,0V11.83ZM5.44,4.81H9c.15,0,.19,0,.18-.19s0-.21,0-.31,0-.23-.24-.23h-7c-.1,0-.15,0-.14.14s0,.25,0,.37,0,.22.21.22Zm0,1.37H9c.19,0,.19,0,.19-.2s0-.2,0-.3,0-.21-.21-.21h-7c-.09,0-.13,0-.13.12a2.86,2.86,0,0,1,0,.41c0,.15,0,.18.19.18ZM4.53,7.57H7.13c.12,0,.17,0,.17-.16s0-.24,0-.36,0-.23-.22-.23H1.89c-.09,0-.13,0-.13.13a3.52,3.52,0,0,1,0,.44c0,.15.05.18.19.18Z" style="fill:#c4622d"/></svg>