<svg id="Layer_1" data-name="Layer 1" xmlns="http://www.w3.org/2000/svg" viewBox="0 0 12.36 9.92"><title>shopping cart icons</title><path d="M4.08,0H7.16A.91.91,0,0,1,8,.52a1,1,0,0,1,.1.44q0,2.47,0,4.95a.93.93,0,0,1-.79,1,2.28,2.28,0,0,1-.37,0l-6,0A.9.9,0,0,1,0,6.17a1.31,1.31,0,0,1,0-.28C0,4.25,0,2.62,0,1A.94.94,0,0,1,.69,0,1.61,1.61,0,0,1,1,0Z" style="fill:#d3cfca"/><path d="M12.35,6.65c0,.4,0,.8,0,1.2a.77.77,0,0,1-.67.8c-.1,0-.16,0-.17-.12a2,2,0,0,0-1.91-1.8A1,1,0,0,1,8.65,6a1.15,1.15,0,0,1,0-.23c0-1,0-2.08,0-3.12a.92.92,0,0,1,.89-.92h.93a.72.72,0,0,1,.71.46c.14.33.27.66.4,1,.22.58.46,1.16.66,1.74a2.52,2.52,0,0,1,.13.68c0,.35,0,.69,0,1Zm-1.05-2a.23.23,0,0,0,0-.05c-.22-.65-.43-1.3-.66-1.94a.19.19,0,0,0-.15-.09h-1c-.13,0-.17,0-.17.17q0,.88,0,1.75c0,.14,0,.18.18.18h1.82Z" style="fill:#d3cfca"/><path d="M9.48,9.92A1.34,1.34,0,0,1,8.14,8.57,1.35,1.35,0,0,1,9.49,7.23a1.34,1.34,0,0,1,0,2.69Z" style="fill:#d3cfca"/><path d="M3.11,8.59a1.32,1.32,0,0,1-1.4,1.32A1.34,1.34,0,0,1,.44,8.5,1.37,1.37,0,0,1,1.79,7.23,1.34,1.34,0,0,1,3.11,8.59Z" style="fill:#d3cfca"/><path d="M3.39,7.41H8a1.57,1.57,0,0,0-.33.76c0,.09-.06.13-.16.13H3.95c-.1,0-.14,0-.18-.13s-.22-.45-.33-.67Z" style="fill:#d3cfca"/></svg>