<svg id="Layer_1" data-name="Layer 1" xmlns="http://www.w3.org/2000/svg" viewBox="0 0 43.37 43.37"><title>about_button-hover</title><path d="M21.68,1A20.68,20.68,0,1,0,42.37,21.68,20.71,20.71,0,0,0,21.68,1Zm6.4,21.18h-5.9v5.9h-1v-5.9h-5.9v-1h5.9v-5.9h1v5.9h5.9Z" style="fill:none"/><path d="M21.68,0A21.68,21.68,0,1,0,43.37,21.68,21.71,21.71,0,0,0,21.68,0Zm0,42.37A20.68,20.68,0,1,1,42.37,21.68,20.71,20.71,0,0,1,21.68,42.37Z" style="fill:#fff"/><polygon points="22.18 15.28 21.18 15.28 21.18 21.18 15.28 21.18 15.28 22.18 21.18 22.18 21.18 28.09 22.18 28.09 22.18 22.18 28.09 22.18 28.09 21.18 22.18 21.18 22.18 15.28" style="fill:#fff"/></svg>