<svg id="Layer_1" data-name="Layer 1" xmlns="http://www.w3.org/2000/svg" viewBox="0 0 43.37 43.37"><title>close_button-hover</title><path d="M36.31,7.06a20.68,20.68,0,1,0,0,29.25A20.71,20.71,0,0,0,36.31,7.06ZM25.86,26.57l-4.17-4.17-4.17,4.17-.71-.71L21,21.68,16.8,17.51l.71-.71L21.68,21l4.17-4.17.71.71-4.17,4.17,4.17,4.17Z" style="fill:none"/><path d="M37,6.35A21.68,21.68,0,1,0,37,37,21.71,21.71,0,0,0,37,6.35Zm-30,30a20.68,20.68,0,1,1,29.25,0A20.71,20.71,0,0,1,7.06,36.31Z" style="fill:#fff"/><polygon points="26.57 17.51 25.86 16.8 21.68 20.98 17.51 16.8 16.8 17.51 20.98 21.68 16.8 25.86 17.51 26.57 21.68 22.39 25.86 26.57 26.57 25.86 22.39 21.68 26.57 17.51" style="fill:#fff"/></svg>