<svg id="Layer_1" data-name="Layer 1" xmlns="http://www.w3.org/2000/svg" viewBox="0 0 197 117"><title>creditcard-illustration</title><line x1="108.5" y1="47.5" x2="111.5" y2="51.5" style="fill:none;stroke:#d3cfca;stroke-miterlimit:10;stroke-width:1.02740233382811px"/><line x1="111.5" y1="47.5" x2="108.5" y2="51.5" style="fill:none;stroke:#d3cfca;stroke-miterlimit:10;stroke-width:1.02740233382811px"/><line x1="114.5" y1="47.5" x2="117.5" y2="51.5" style="fill:none;stroke:#d3cfca;stroke-miterlimit:10;stroke-width:1.02740233382811px"/><line x1="117.5" y1="47.5" x2="114.5" y2="51.5" style="fill:none;stroke:#d3cfca;stroke-miterlimit:10;stroke-width:1.02740233382811px"/><line x1="120.5" y1="47.5" x2="123.5" y2="51.5" style="fill:none;stroke:#d3cfca;stroke-miterlimit:10;stroke-width:1.02740233382811px"/><line x1="123.5" y1="47.5" x2="120.5" y2="51.5" style="fill:none;stroke:#d3cfca;stroke-miterlimit:10;stroke-width:1.02740233382811px"/><line x1="126.5" y1="47.5" x2="129.5" y2="51.5" style="fill:none;stroke:#d3cfca;stroke-miterlimit:10;stroke-width:1.02740233382811px"/><line x1="129.5" y1="47.5" x2="126.5" y2="51.5" style="fill:none;stroke:#d3cfca;stroke-miterlimit:10;stroke-width:1.02740233382811px"/><rect x="0.5" y="0.5" width="196" height="116" rx="12" ry="12" style="fill:#c4622d;stroke:#d3cfca;stroke-miterlimit:10"/><line x1="54.5" y1="47.5" x2="57.5" y2="51.5" style="fill:none;stroke:#d3cfca;stroke-miterlimit:10;stroke-width:1.02740233382811px"/><line x1="57.5" y1="47.5" x2="54.5" y2="51.5" style="fill:none;stroke:#d3cfca;stroke-miterlimit:10;stroke-width:1.02740233382811px"/><line x1="60.5" y1="47.5" x2="63.5" y2="51.5" style="fill:none;stroke:#d3cfca;stroke-miterlimit:10;stroke-width:1.02740233382811px"/><line x1="63.5" y1="47.5" x2="60.5" y2="51.5" style="fill:none;stroke:#d3cfca;stroke-miterlimit:10;stroke-width:1.02740233382811px"/><line x1="66.5" y1="47.5" x2="69.5" y2="51.5" style="fill:none;stroke:#d3cfca;stroke-miterlimit:10;stroke-width:1.02740233382811px"/><line x1="69.5" y1="47.5" x2="66.5" y2="51.5" style="fill:none;stroke:#d3cfca;stroke-miterlimit:10;stroke-width:1.02740233382811px"/><line x1="72.5" y1="47.5" x2="75.5" y2="51.5" style="fill:none;stroke:#d3cfca;stroke-miterlimit:10;stroke-width:1.02740233382811px"/><line x1="75.5" y1="47.5" x2="72.5" y2="51.5" style="fill:none;stroke:#d3cfca;stroke-miterlimit:10;stroke-width:1.02740233382811px"/><line x1="81.5" y1="47.5" x2="84.5" y2="51.5" style="fill:none;stroke:#d3cfca;stroke-miterlimit:10;stroke-width:1.02740233382811px"/><line x1="84.5" y1="47.5" x2="81.5" y2="51.5" style="fill:none;stroke:#d3cfca;stroke-miterlimit:10;stroke-width:1.02740233382811px"/><line x1="87.5" y1="47.5" x2="90.5" y2="51.5" style="fill:none;stroke:#d3cfca;stroke-miterlimit:10;stroke-width:1.02740233382811px"/><line x1="90.5" y1="47.5" x2="87.5" y2="51.5" style="fill:none;stroke:#d3cfca;stroke-miterlimit:10;stroke-width:1.02740233382811px"/><line x1="93.5" y1="47.5" x2="96.5" y2="51.5" style="fill:none;stroke:#d3cfca;stroke-miterlimit:10;stroke-width:1.02740233382811px"/><line x1="96.5" y1="47.5" x2="93.5" y2="51.5" style="fill:none;stroke:#d3cfca;stroke-miterlimit:10;stroke-width:1.02740233382811px"/><line x1="99.5" y1="47.5" x2="102.5" y2="51.5" style="fill:none;stroke:#d3cfca;stroke-miterlimit:10;stroke-width:1.02740233382811px"/><line x1="102.5" y1="47.5" x2="99.5" y2="51.5" style="fill:none;stroke:#d3cfca;stroke-miterlimit:10;stroke-width:1.02740233382811px"/><line x1="135.5" y1="47.5" x2="138.5" y2="51.5" style="fill:none;stroke:#d3cfca;stroke-miterlimit:10;stroke-width:1.02740233382811px"/><line x1="138.5" y1="47.5" x2="135.5" y2="51.5" style="fill:none;stroke:#d3cfca;stroke-miterlimit:10;stroke-width:1.02740233382811px"/><line x1="141.5" y1="47.5" x2="144.5" y2="51.5" style="fill:none;stroke:#d3cfca;stroke-miterlimit:10;stroke-width:1.02740233382811px"/><line x1="144.5" y1="47.5" x2="141.5" y2="51.5" style="fill:none;stroke:#d3cfca;stroke-miterlimit:10;stroke-width:1.02740233382811px"/><line x1="147.5" y1="47.5" x2="150.5" y2="51.5" style="fill:none;stroke:#d3cfca;stroke-miterlimit:10;stroke-width:1.02740233382811px"/><line x1="150.5" y1="47.5" x2="147.5" y2="51.5" style="fill:none;stroke:#d3cfca;stroke-miterlimit:10;stroke-width:1.02740233382811px"/><line x1="153.5" y1="47.5" x2="156.5" y2="51.5" style="fill:none;stroke:#d3cfca;stroke-miterlimit:10;stroke-width:1.02740233382811px"/><line x1="156.5" y1="47.5" x2="153.5" y2="51.5" style="fill:none;stroke:#d3cfca;stroke-miterlimit:10;stroke-width:1.02740233382811px"/><rect x="163" y="40" width="27" height="15" style="fill:none;stroke:#d3cfca;stroke-miterlimit:10;stroke-width:1.02740233382811px"/><rect x="6.5" y="34.5" width="183.5" height="20.5" style="fill:none;stroke:#d3cfca;stroke-miterlimit:10;stroke-width:0.989372358257488px"/><path d="M180.5,83.63a2,2,0,0,0-2.27-2.23H151.77a2.1,2.1,0,0,0-1.66.61,2.17,2.17,0,0,0-.61,1.62v15.1a2.18,2.18,0,0,0,.61,1.62,2.26,2.26,0,0,0,1.66.61h26.45a2,2,0,0,0,2.27-2.23V83.63Zm-2.27-1.88a1.66,1.66,0,0,1,1.88,1.88v15.1a1.66,1.66,0,0,1-1.88,1.88H151.77a1.81,1.81,0,0,1-1.92-1.88V83.63a1.67,1.67,0,0,1,1.92-1.88Z" style="fill:#d3cfca;fill-rule:evenodd"/><path d="M152,82.63a1.39,1.39,0,0,0-1,.26,1.69,1.69,0,0,0-.22,1v3.27h28.47V83.89A1.11,1.11,0,0,0,178,82.63Z" style="fill:#d3cfca;fill-rule:evenodd"/><path d="M150.77,98.43c0,.87.41,1.31,1.22,1.31h26a1.14,1.14,0,0,0,1.27-1.31V95.16H150.77v3.27Z" style="fill:#d3cfca;fill-rule:evenodd"/><path d="M160.19,88.56a.6.6,0,0,1-.08.35l-2.05,3.58-.13-4.36h-3.28l1.1.53a.9.9,0,0,1,.48.79l.3,4.63h1.61L162,88.12h-2a.58.58,0,0,1,.18.43Z" style="fill:#d3cfca;fill-rule:evenodd"/><path d="M173.47,88.3l.13-.18h-2c.07.07.09.11.09.13a2.12,2.12,0,0,1-.09.22l-2.92,5.32-.22.27h1.65l-.08-.18a2.52,2.52,0,0,1,.26-.83l.35-.66h1.7c.07.55.12,1,.14,1.35l-.14.32h2.05l-.3-.45-.61-5.32Zm-1.22,3.27H171l1-2,.18,2Z" style="fill:#d3cfca;fill-rule:evenodd"/><path d="M167.18,87.82a2.7,2.7,0,0,0-1.65.53,1.33,1.33,0,0,0-.79,1.17,1.88,1.88,0,0,0,.56,1.4l1.14.79c.41.29.61.55.61.79a.71.71,0,0,1-.3.57,1.1,1.1,0,0,1-.7.22,5.48,5.48,0,0,1-2.09-.83v1.09a4.32,4.32,0,0,0,2.22.69,2.57,2.57,0,0,0,1.75-.61,1.54,1.54,0,0,0,.18-2.57L167,90.27c-.36-.29-.56-.55-.56-.75,0-.46.27-.69.82-.69a3.69,3.69,0,0,1,1.66.66l.22-1.14a3.91,3.91,0,0,0-2-.53Z" style="fill:#d3cfca;fill-rule:evenodd"/><path d="M162.82,94.07c0-.25-.07-.47-.09-.7l1.49-4.81.35-.43h-2.15c0,.11,0,.25.07.35a1.83,1.83,0,0,1,0,.35L161,93.59l-.3.48Z" style="fill:#d3cfca;fill-rule:evenodd"/><path d="M168.19,45.88l.16-.74a4.55,4.55,0,0,0,1.53-.34,2.25,2.25,0,0,0,.86-1.13h.76l-1.63,7.66h-1L170,45.88Z" style="fill:#d3cfca"/><path d="M174.9,48.26l1.15-.6a6.68,6.68,0,0,0,1.12-.69,1.83,1.83,0,0,0,.66-1,1.22,1.22,0,0,0-.17-1.07,1.2,1.2,0,0,0-1-.39,1.78,1.78,0,0,0-1.54.75,3.2,3.2,0,0,0-.46,1.12h-1a4.18,4.18,0,0,1,.72-1.64,2.92,2.92,0,0,1,2.45-1.12,2,2,0,0,1,1.78.71,2.06,2.06,0,0,1,.27,1.59,2.78,2.78,0,0,1-1,1.58,8.51,8.51,0,0,1-1.54.92l-.82.41a6.19,6.19,0,0,0-.95.55,2.68,2.68,0,0,0-.9,1h4.2l-.19.91h-5.28a5.42,5.42,0,0,1,.78-1.73A4.52,4.52,0,0,1,174.9,48.26Z" style="fill:#d3cfca"/><path d="M179,49h1A2.23,2.23,0,0,0,180,50q.25.61,1.23.61a2.13,2.13,0,0,0,1.31-.41,1.74,1.74,0,0,0,.69-1.05,1,1,0,0,0-.25-1.11,2.12,2.12,0,0,0-1.28-.32h-.4l.18-.85.25,0H182a2.28,2.28,0,0,0,.93-.17,1.43,1.43,0,0,0,.84-1.07.87.87,0,0,0-.22-.89,1.27,1.27,0,0,0-.89-.31,1.76,1.76,0,0,0-1.47.64,2.71,2.71,0,0,0-.45,1h-1a3.5,3.5,0,0,1,.66-1.46,2.72,2.72,0,0,1,2.3-1.07,2.38,2.38,0,0,1,1.71.52,1.55,1.55,0,0,1,.32,1.52,2.07,2.07,0,0,1-1.33,1.58,1.26,1.26,0,0,1,.81.64,1.73,1.73,0,0,1,.1,1.16,3,3,0,0,1-1.11,1.79,3.44,3.44,0,0,1-2.2.69,2,2,0,0,1-1.82-.75A2.44,2.44,0,0,1,179,49Z" style="fill:#d3cfca"/><rect x="0.5" y="10" width="196" height="19" style="fill:#d3cfca"/></svg>