<svg id="Layer_1" data-name="Layer 1" xmlns="http://www.w3.org/2000/svg" xmlns:xlink="http://www.w3.org/1999/xlink" viewBox="0 0 33.83 28.83"><defs><clipPath id="clip-path"><rect y="26.47" width="25.73" height="2.36" style="fill:#d3cfca"/></clipPath><clipPath id="clip-path-2"><path d="M24,8.68H25.5a5.19,5.19,0,1,1,0,10.38H24ZM14,9.36h2.53V3h1.2v6.4h1.83v8.23H14Zm.76-8.17a1.77,1.77,0,0,1,1.77,1.72H13a1.77,1.77,0,0,1,1.76-1.72M11.81,2.91H.36v18a10.23,10.23,0,0,0,.78,2.44,4.55,4.55,0,0,0,2.33,2.12l17.36.08a5.82,5.82,0,0,0,2.54-2,6.13,6.13,0,0,0,.57-2.06v.28h1.9a8,8,0,0,0,0-16H24V2.91h-6.3a3,3,0,0,0-5.91,0" style="fill:#d3cfca"/></clipPath></defs><title>directions-section-teacup</title><rect y="26.47" width="25.73" height="2.36" style="fill:#d3cfca"/><g style="clip-path:url(#clip-path)"><rect y="26.47" width="25.73" height="2.36" style="fill:#d3cfca"/></g><path d="M24,8.68H25.5a5.19,5.19,0,1,1,0,10.38H24ZM14,9.36h2.53V3h1.2v6.4h1.83v8.23H14Zm.76-8.17a1.77,1.77,0,0,1,1.77,1.72H13a1.77,1.77,0,0,1,1.76-1.72M11.81,2.91H.36v18a10.23,10.23,0,0,0,.78,2.44,4.55,4.55,0,0,0,2.33,2.12l17.36.08a5.82,5.82,0,0,0,2.54-2,6.13,6.13,0,0,0,.57-2.06v.28h1.9a8,8,0,0,0,0-16H24V2.91h-6.3a3,3,0,0,0-5.91,0" style="fill:#d3cfca"/><g style="clip-path:url(#clip-path-2)"><rect x="0.36" width="33.47" height="25.57" style="fill:#d3cfca"/></g></svg>