<svg id="Layer_1" data-name="Layer 1" xmlns="http://www.w3.org/2000/svg" xmlns:xlink="http://www.w3.org/1999/xlink" viewBox="0 0 33.61 33.53"><defs><clipPath id="clip-path"><path d="M23.91,3.53a.67.67,0,0,0,.08.62l5.55,5.57a.88.88,0,0,0,.77,0,1.63,1.63,0,0,0,.45-.51L24.49,2.83a2.07,2.07,0,0,0-.58.7" style="fill:#d3cfca"/></clipPath><clipPath id="clip-path-2"><path d="M.22,21.93A4.28,4.28,0,0,0,.52,24l8.75,8.9a4.13,4.13,0,0,0,2.14.45,3.44,3.44,0,0,0,1.35-.73L.85,20.52a5.7,5.7,0,0,0-.62,1.41" style="fill:#d3cfca"/></clipPath><clipPath id="clip-path-3"><path d="M22.24,5.24c-4.56-1.83-5.72-.37-5.72-.37L15.14,6.23l1.64,1.51h.33c.92-.05,3.18-.1,6,2.79a8.39,8.39,0,0,1,2.29,6.29L27,18.46,28.43,17s1.08-.87-.18-5.57a2.63,2.63,0,0,1,1-1.58L23.71,4.22a4,4,0,0,1-1.47,1" style="fill:#d3cfca"/></clipPath><clipPath id="clip-path-4"><path d="M30.71,7.67a.15.15,0,0,1,0-.22l1.71-1.66a.16.16,0,0,1,.21,0,.15.15,0,0,1,0,.22l-1.7,1.66a.17.17,0,0,1-.11,0,.14.14,0,0,1-.1,0m-.94-1a.15.15,0,0,1,0-.22l1.71-1.66a.16.16,0,0,1,.22,0,.15.15,0,0,1,0,.22L30,6.71a.13.13,0,0,1-.1,0,.14.14,0,0,1-.1,0m-.94-1a.16.16,0,0,1,0-.22l1.71-1.66a.16.16,0,0,1,.22,0,.14.14,0,0,1,0,.21L29.05,5.75a.14.14,0,0,1-.11,0,.14.14,0,0,1-.11,0m-.94-1a.15.15,0,0,1,0-.21l1.7-1.66a.17.17,0,0,1,.22,0,.15.15,0,0,1,0,.21L28.12,4.79a.15.15,0,0,1-.11,0,.14.14,0,0,1-.11,0m-.93-1a.15.15,0,0,1,0-.22l1.71-1.67a.15.15,0,0,1,.21.22L27.18,3.83a.18.18,0,0,1-.1,0,.19.19,0,0,1-.11,0m-.94-1a.15.15,0,0,1,0-.21L27.75,1A.16.16,0,0,1,28,1a.16.16,0,0,1,0,.22L26.26,2.86a.16.16,0,0,1-.11.05A.14.14,0,0,1,26,2.86m-1-.29L31,8.66l2.64-2.57L27.7,0Z" style="fill:#d3cfca"/></clipPath><clipPath id="clip-path-5"><path d="M1.13,19.85,13.05,32,26.52,18.83l-1.73-2A7.91,7.91,0,0,0,22.64,11c-3.46-3.52-6.13-2.5-6.16-2.5l-1.85-1.8Z" style="fill:#d3cfca"/></clipPath><clipPath id="clip-path-6"><path d="M9.25,7a4.66,4.66,0,0,0-3.53,5.56.38.38,0,0,0,.12.2.43.43,0,0,0,.39.12.43.43,0,0,0,.32-.51A3.82,3.82,0,0,1,9.43,7.79.42.42,0,0,0,9.34,7L9.25,7" style="fill:#d3cfca"/></clipPath><clipPath id="clip-path-7"><path d="M7.66,4.19a6.55,6.55,0,0,0-5,7.83.42.42,0,0,0,.12.2.41.41,0,0,0,.39.11.43.43,0,0,0,.32-.5A5.69,5.69,0,0,1,7.84,5a.42.42,0,0,0,.32-.5.43.43,0,0,0-.41-.33H7.66" style="fill:#d3cfca"/></clipPath><clipPath id="clip-path-8"><path d="M26.31,22.39a.42.42,0,0,0-.33.5,3.82,3.82,0,0,1-3,4.48.42.42,0,0,0-.33.5.41.41,0,0,0,.11.22.46.46,0,0,0,.38.12,4.68,4.68,0,0,0,3.67-5.48.43.43,0,0,0-.42-.34h-.09" style="fill:#d3cfca"/></clipPath><clipPath id="clip-path-9"><path d="M29.33,23a.44.44,0,0,0-.34.5,5.71,5.71,0,0,1-4.5,6.7.42.42,0,0,0-.33.49.41.41,0,0,0,.12.22.44.44,0,0,0,.38.12,6.57,6.57,0,0,0,5.16-7.7.43.43,0,0,0-.41-.34h-.08" style="fill:#d3cfca"/></clipPath></defs><title>directions-section-bottle_shaken</title><path d="M23.91,3.53a.67.67,0,0,0,.08.62l5.55,5.57a.88.88,0,0,0,.77,0,1.63,1.63,0,0,0,.45-.51L24.49,2.83a2.07,2.07,0,0,0-.58.7" style="fill:#d3cfca"/><g style="clip-path:url(#clip-path)"><rect x="23.78" y="2.83" width="6.97" height="7.1" style="fill:#d3cfca"/></g><path d="M.22,21.93A4.28,4.28,0,0,0,.52,24l8.75,8.9a4.13,4.13,0,0,0,2.14.45,3.44,3.44,0,0,0,1.35-.73L.85,20.52a5.7,5.7,0,0,0-.62,1.41" style="fill:#d3cfca"/><g style="clip-path:url(#clip-path-2)"><rect y="20.52" width="12.75" height="13.01" style="fill:#d3cfca"/></g><path d="M22.24,5.24c-4.56-1.83-5.72-.37-5.72-.37L15.14,6.23l1.64,1.51h.33c.92-.05,3.18-.1,6,2.79a8.39,8.39,0,0,1,2.29,6.29L27,18.46,28.43,17s1.08-.87-.18-5.57a2.63,2.63,0,0,1,1-1.58L23.71,4.22a4,4,0,0,1-1.47,1" style="fill:#d3cfca"/><g style="clip-path:url(#clip-path-3)"><rect x="15.14" y="3.41" width="14.36" height="15.05" style="fill:#d3cfca"/></g><path d="M30.71,7.67a.15.15,0,0,1,0-.22l1.71-1.66a.16.16,0,0,1,.21,0,.15.15,0,0,1,0,.22l-1.7,1.66a.17.17,0,0,1-.11,0,.14.14,0,0,1-.1,0m-.94-1a.15.15,0,0,1,0-.22l1.71-1.66a.16.16,0,0,1,.22,0,.15.15,0,0,1,0,.22L30,6.71a.13.13,0,0,1-.1,0,.14.14,0,0,1-.1,0m-.94-1a.16.16,0,0,1,0-.22l1.71-1.66a.16.16,0,0,1,.22,0,.14.14,0,0,1,0,.21L29.05,5.75a.14.14,0,0,1-.11,0,.14.14,0,0,1-.11,0m-.94-1a.15.15,0,0,1,0-.21l1.7-1.66a.17.17,0,0,1,.22,0,.15.15,0,0,1,0,.21L28.12,4.79a.15.15,0,0,1-.11,0,.14.14,0,0,1-.11,0m-.93-1a.15.15,0,0,1,0-.22l1.71-1.67a.15.15,0,0,1,.21.22L27.18,3.83a.18.18,0,0,1-.1,0,.19.19,0,0,1-.11,0m-.94-1a.15.15,0,0,1,0-.21L27.75,1A.16.16,0,0,1,28,1a.16.16,0,0,1,0,.22L26.26,2.86a.16.16,0,0,1-.11.05A.14.14,0,0,1,26,2.86m-1-.29L31,8.66l2.64-2.57L27.7,0Z" style="fill:#d3cfca"/><g style="clip-path:url(#clip-path-4)"><rect x="25.06" width="8.55" height="8.66" style="fill:#d3cfca"/></g><path d="M1.13,19.85,13.05,32,26.52,18.83l-1.73-2A7.91,7.91,0,0,0,22.64,11c-3.46-3.52-6.13-2.5-6.16-2.5l-1.85-1.8Z" style="fill:#d3cfca"/><g style="clip-path:url(#clip-path-5)"><rect x="1.13" y="6.71" width="25.38" height="25.24" style="fill:#d3cfca"/></g><path d="M9.25,7a4.66,4.66,0,0,0-3.53,5.56.38.38,0,0,0,.12.2.43.43,0,0,0,.39.12.43.43,0,0,0,.32-.51A3.82,3.82,0,0,1,9.43,7.79.42.42,0,0,0,9.34,7L9.25,7" style="fill:#d3cfca"/><g style="clip-path:url(#clip-path-6)"><rect x="5.16" y="6.96" width="4.65" height="5.93" style="fill:#d3cfca"/></g><path d="M7.66,4.19a6.55,6.55,0,0,0-5,7.83.42.42,0,0,0,.12.2.41.41,0,0,0,.39.11.43.43,0,0,0,.32-.5A5.69,5.69,0,0,1,7.84,5a.42.42,0,0,0,.32-.5.43.43,0,0,0-.41-.33H7.66" style="fill:#d3cfca"/><g style="clip-path:url(#clip-path-7)"><rect x="2.31" y="4.17" width="5.9" height="8.19" style="fill:#d3cfca"/></g><path d="M26.31,22.39a.42.42,0,0,0-.33.5,3.82,3.82,0,0,1-3,4.48.42.42,0,0,0-.33.5.41.41,0,0,0,.11.22.46.46,0,0,0,.38.12,4.68,4.68,0,0,0,3.67-5.48.43.43,0,0,0-.42-.34h-.09" style="fill:#d3cfca"/><g style="clip-path:url(#clip-path-8)"><rect x="22.6" y="22.39" width="4.71" height="5.84" style="fill:#d3cfca"/></g><path d="M29.33,23a.44.44,0,0,0-.34.5,5.71,5.71,0,0,1-4.5,6.7.42.42,0,0,0-.33.49.41.41,0,0,0,.12.22.44.44,0,0,0,.38.12,6.57,6.57,0,0,0,5.16-7.7.43.43,0,0,0-.41-.34h-.08" style="fill:#d3cfca"/><g style="clip-path:url(#clip-path-9)"><rect x="24.12" y="22.98" width="6.04" height="8.07" style="fill:#d3cfca"/></g></svg>