<svg id="Layer_1" data-name="Layer 1" xmlns="http://www.w3.org/2000/svg" xmlns:xlink="http://www.w3.org/1999/xlink" viewBox="0 0 31.39 32.89"><defs><clipPath id="clip-path"><path d="M0,2.13,14.42,16.64c2,1,4.92,3.2,5.21,5.06a4.48,4.48,0,0,0-.5,2.13,8.3,8.3,0,0,0,2.58,5.69c1.69,1.71,5.74,3.36,8.38.87l.07-.06h0a4.3,4.3,0,0,0,1.23-3.14,8.2,8.2,0,0,0-2.12-5.13c-2.67-2.73-5.73-3.33-7.59-2.36-1.86-.32-4.19-3.12-5.1-5.16C16.46,14.41,2.59.45,2.15,0L0,2.13" style="fill:#d3cfca"/></clipPath></defs><title>directions-section-spoon</title><path d="M0,2.13,14.42,16.64c2,1,4.92,3.2,5.21,5.06a4.48,4.48,0,0,0-.5,2.13,8.3,8.3,0,0,0,2.58,5.69c1.69,1.71,5.74,3.36,8.38.87l.07-.06h0a4.3,4.3,0,0,0,1.23-3.14,8.2,8.2,0,0,0-2.12-5.13c-2.67-2.73-5.73-3.33-7.59-2.36-1.86-.32-4.19-3.12-5.1-5.16C16.46,14.41,2.59.45,2.15,0L0,2.13" style="fill:#d3cfca"/><g style="clip-path:url(#clip-path)"><rect width="31.39" height="32.89" style="fill:#d3cfca"/></g></svg>