<svg id="Layer_1" data-name="Layer 1" xmlns="http://www.w3.org/2000/svg" viewBox="0 0 57.97 61.13" style=""><title>mushroom-loader</title><path d="M.49,29.23a28.49,28.49,0,1,1,57,0" style="fill:#d3cfca;stroke:#c4622d;stroke-miterlimit:10;stroke-width:0.9881843624478392px" class="AxkUzvVB_0"></path><path style="fill:#d3cfca;stroke:#c4622d;stroke-miterlimit:10;stroke-width:0.9881843624478392px" d="M0.5799999999999983,29.03A28.44,4.55 0,1,1 57.46,29.03A28.44,4.55 0,1,1 0.5799999999999983,29.03" class="AxkUzvVB_1"></path><path d="M24,38.5v16s-.42,6.18,5.06,6.18c5.06,0,4.85-6.18,4.85-6.18l.2-16Z" style="fill:#d3cfca;stroke:#c4622d;stroke-miterlimit:10;stroke-width:0.9881843624478392px" class="AxkUzvVB_2"></path><path d="M18.69,24.48s.93,6,10.42,6.2" style="fill:none;stroke:#c4622d;stroke-miterlimit:10;stroke-width:0.9881843624478392px" class="AxkUzvVB_3"></path><path d="M39.29,24.49s-.69,6-10.18,6.2" style="fill:none;stroke:#c4622d;stroke-miterlimit:10;stroke-width:0.9881843624478392px" class="AxkUzvVB_4"></path><path d="M52.28,26.49S46.6,32.67,29.11,30" style="fill:none;stroke:#c4622d;stroke-miterlimit:10;stroke-width:0.9881843624478392px" class="AxkUzvVB_5"></path><path d="M5.88,26.49S11.56,32.67,29.05,30" style="fill:none;stroke:#c4622d;stroke-miterlimit:10;stroke-width:0.9881843624478392px" class="AxkUzvVB_6"></path><path style="fill:none;stroke:#c4622d;stroke-miterlimit:10;stroke-width:0.9881843624478392px" d="M28.96,24.41L28.9,30.21" class="AxkUzvVB_7"></path><path style="fill:#d3cfca;stroke:#c4622d;stroke-miterlimit:10;stroke-width:0.9881843624478392px" d="M21.63,37.55A7.44,2.31 0,1,1 36.51,37.55A7.44,2.31 0,1,1 21.63,37.55" class="AxkUzvVB_8"></path><path d="M25.1,35.8c-3,6.46-3.09,8.9-3.09,8.9-.29,2,.7,3.62,2.22,3.62s3-1.62,3.27-3.62a29.32,29.32,0,0,0-.34-8.88" style="fill:#d3cfca;stroke:#c4622d;stroke-miterlimit:10;stroke-width:0.9881843624478392px" class="AxkUzvVB_9"></path><path d="M33.1,35.8c3,6.46,3.09,8.9,3.09,8.9.29,2-.7,3.62-2.22,3.62s-3-1.62-3.27-3.62A29.32,29.32,0,0,1,31,35.82" style="fill:#d3cfca;stroke:#c4622d;stroke-miterlimit:10;stroke-width:0.9881843624478392px" class="AxkUzvVB_10"></path><path d="M28.12,36c-2,6.34-1.79,8.74-1.79,8.74,0,2,1.23,3.56,2.75,3.56s2.75-1.59,2.75-3.56A29.47,29.47,0,0,0,30.19,36" style="fill:#d3cfca;stroke:#c4622d;stroke-miterlimit:10;stroke-width:0.9881843624478392px" class="AxkUzvVB_11"></path><path d="M36.48,36.82V31.26s-2.37-2.08-7.37-2.08-7.48,2.08-7.48,2.08v5.56a26.35,26.35,0,0,1,7.47-1A25.23,25.23,0,0,1,36.48,36.82Z" style="fill:#d3cfca;stroke:#c4622d;stroke-miterlimit:10;stroke-width:0.9881843624478392px" class="AxkUzvVB_12"></path><style>.AxkUzvVB_0{stroke-dasharray:90 92;stroke-dashoffset:91;animation:AxkUzvVB_draw_0 2400ms ease-in 0ms infinite,AxkUzvVB_fade 2400ms linear 0ms infinite;}.AxkUzvVB_1{stroke-dasharray:118 120;stroke-dashoffset:119;animation:AxkUzvVB_draw_1 2400ms ease-in 0ms infinite,AxkUzvVB_fade 2400ms linear 0ms infinite;}.AxkUzvVB_2{stroke-dasharray:61 63;stroke-dashoffset:62;animation:AxkUzvVB_draw_2 2400ms ease-in 0ms infinite,AxkUzvVB_fade 2400ms linear 0ms infinite;}.AxkUzvVB_3{stroke-dasharray:14 16;stroke-dashoffset:15;animation:AxkUzvVB_draw_3 2400ms ease-in 0ms infinite,AxkUzvVB_fade 2400ms linear 0ms infinite;}.AxkUzvVB_4{stroke-dasharray:13 15;stroke-dashoffset:14;animation:AxkUzvVB_draw_4 2400ms ease-in 0ms infinite,AxkUzvVB_fade 2400ms linear 0ms infinite;}.AxkUzvVB_5{stroke-dasharray:25 27;stroke-dashoffset:26;animation:AxkUzvVB_draw_5 2400ms ease-in 0ms infinite,AxkUzvVB_fade 2400ms linear 0ms infinite;}.AxkUzvVB_6{stroke-dasharray:25 27;stroke-dashoffset:26;animation:AxkUzvVB_draw_6 2400ms ease-in 0ms infinite,AxkUzvVB_fade 2400ms linear 0ms infinite;}.AxkUzvVB_7{stroke-dasharray:6 8;stroke-dashoffset:7;animation:AxkUzvVB_draw_7 2400ms ease-in 0ms infinite,AxkUzvVB_fade 2400ms linear 0ms infinite;}.AxkUzvVB_8{stroke-dasharray:33 35;stroke-dashoffset:34;animation:AxkUzvVB_draw_8 2400ms ease-in 0ms infinite,AxkUzvVB_fade 2400ms linear 0ms infinite;}.AxkUzvVB_9{stroke-dasharray:29 31;stroke-dashoffset:30;animation:AxkUzvVB_draw_9 2400ms ease-in 0ms infinite,AxkUzvVB_fade 2400ms linear 0ms infinite;}.AxkUzvVB_10{stroke-dasharray:29 31;stroke-dashoffset:30;animation:AxkUzvVB_draw_10 2400ms ease-in 0ms infinite,AxkUzvVB_fade 2400ms linear 0ms infinite;}.AxkUzvVB_11{stroke-dasharray:28 30;stroke-dashoffset:29;animation:AxkUzvVB_draw_11 2400ms ease-in 0ms infinite,AxkUzvVB_fade 2400ms linear 0ms infinite;}.AxkUzvVB_12{stroke-dasharray:42 44;stroke-dashoffset:43;animation:AxkUzvVB_draw_12 2400ms ease-in 0ms infinite,AxkUzvVB_fade 2400ms linear 0ms infinite;}@keyframes AxkUzvVB_draw{100%{stroke-dashoffset:0;}}@keyframes AxkUzvVB_fade{0%{stroke-opacity:1;}75%{stroke-opacity:1;}100%{stroke-opacity:0;}}@keyframes AxkUzvVB_draw_0{0%{stroke-dashoffset: 91}50%{ stroke-dashoffset: 0;}100%{ stroke-dashoffset: 0;}}@keyframes AxkUzvVB_draw_1{2.083333333333333%{stroke-dashoffset: 119}52.083333333333336%{ stroke-dashoffset: 0;}100%{ stroke-dashoffset: 0;}}@keyframes AxkUzvVB_draw_2{4.166666666666666%{stroke-dashoffset: 62}54.166666666666664%{ stroke-dashoffset: 0;}100%{ stroke-dashoffset: 0;}}@keyframes AxkUzvVB_draw_3{6.25%{stroke-dashoffset: 15}56.25%{ stroke-dashoffset: 0;}100%{ stroke-dashoffset: 0;}}@keyframes AxkUzvVB_draw_4{8.333333333333332%{stroke-dashoffset: 14}58.333333333333336%{ stroke-dashoffset: 0;}100%{ stroke-dashoffset: 0;}}@keyframes AxkUzvVB_draw_5{10.416666666666668%{stroke-dashoffset: 26}60.416666666666664%{ stroke-dashoffset: 0;}100%{ stroke-dashoffset: 0;}}@keyframes AxkUzvVB_draw_6{12.5%{stroke-dashoffset: 26}62.5%{ stroke-dashoffset: 0;}100%{ stroke-dashoffset: 0;}}@keyframes AxkUzvVB_draw_7{14.583333333333334%{stroke-dashoffset: 7}64.58333333333334%{ stroke-dashoffset: 0;}100%{ stroke-dashoffset: 0;}}@keyframes AxkUzvVB_draw_8{16.666666666666664%{stroke-dashoffset: 34}66.66666666666666%{ stroke-dashoffset: 0;}100%{ stroke-dashoffset: 0;}}@keyframes AxkUzvVB_draw_9{18.75%{stroke-dashoffset: 30}68.75%{ stroke-dashoffset: 0;}100%{ stroke-dashoffset: 0;}}@keyframes AxkUzvVB_draw_10{20.833333333333336%{stroke-dashoffset: 30}70.83333333333334%{ stroke-dashoffset: 0;}100%{ stroke-dashoffset: 0;}}@keyframes AxkUzvVB_draw_11{22.916666666666664%{stroke-dashoffset: 29}72.91666666666666%{ stroke-dashoffset: 0;}100%{ stroke-dashoffset: 0;}}@keyframes AxkUzvVB_draw_12{25%{stroke-dashoffset: 43}75%{ stroke-dashoffset: 0;}100%{ stroke-dashoffset: 0;}}</style></svg>