<svg id="Layer_1" data-name="Layer 1" xmlns="http://www.w3.org/2000/svg" viewBox="0 0 35.99 37.95"><title>mushroom-icon</title><path d="M.31,18.14a17.68,17.68,0,1,1,35.36,0" style="fill:#d3cfca;stroke:#c4622d;stroke-miterlimit:10;stroke-width:0.626164242625237px"/><ellipse cx="18.02" cy="18.02" rx="17.65" ry="2.82" style="fill:#d3cfca;stroke:#c4622d;stroke-miterlimit:10;stroke-width:0.626164242625237px"/><path d="M14.9,23.9v9.9s-.26,3.84,3.14,3.84c3.14,0,3-3.84,3-3.84l.13-9.9Z" style="fill:#d3cfca;stroke:#c4622d;stroke-miterlimit:10;stroke-width:0.626164242625237px"/><path d="M11.6,15.2s.58,3.7,6.47,3.85" style="fill:none;stroke:#c4622d;stroke-miterlimit:10;stroke-width:0.626164242625237px"/><path d="M24.39,15.2s-.43,3.71-6.32,3.85" style="fill:none;stroke:#c4622d;stroke-miterlimit:10;stroke-width:0.626164242625237px"/><path d="M32.45,16.45s-3.53,3.83-14.38,2.2" style="fill:none;stroke:#c4622d;stroke-miterlimit:10;stroke-width:0.626164242625237px"/><path d="M3.65,16.45S7.18,20.28,18,18.65" style="fill:none;stroke:#c4622d;stroke-miterlimit:10;stroke-width:0.626164242625237px"/><line x1="17.98" y1="15.16" x2="17.94" y2="18.75" style="fill:none;stroke:#c4622d;stroke-miterlimit:10;stroke-width:0.626164242625237px"/><ellipse cx="18.04" cy="23.31" rx="4.62" ry="1.43" style="fill:#d3cfca;stroke:#c4622d;stroke-miterlimit:10;stroke-width:0.626164242625237px"/><path d="M15.58,22.22c-1.85,4-1.91,5.52-1.91,5.52C13.49,29,14.11,30,15,30a2.43,2.43,0,0,0,2-2.25,18.19,18.19,0,0,0-.21-5.51" style="fill:#d3cfca;stroke:#c4622d;stroke-miterlimit:10;stroke-width:0.626164242625237px"/><path d="M20.55,22.22c1.85,4,1.91,5.52,1.91,5.52C22.64,29,22,30,21.09,30a2.43,2.43,0,0,1-2-2.25,18.19,18.19,0,0,1,.21-5.51" style="fill:#d3cfca;stroke:#c4622d;stroke-miterlimit:10;stroke-width:0.626164242625237px"/><path d="M17.46,22.36c-1.27,3.94-1.11,5.42-1.11,5.42A2,2,0,0,0,18,30a2,2,0,0,0,1.71-2.21,18.29,18.29,0,0,0-1-5.41" style="fill:#d3cfca;stroke:#c4622d;stroke-miterlimit:10;stroke-width:0.626164242625237px"/><path d="M22.64,22.86V19.41a7.19,7.19,0,0,0-4.57-1.29,7.52,7.52,0,0,0-4.64,1.29v3.45a16.36,16.36,0,0,1,4.64-.63A15.66,15.66,0,0,1,22.64,22.86Z" style="fill:#d3cfca;stroke:#c4622d;stroke-miterlimit:10;stroke-width:0.626164242625237px"/></svg>