<svg id="Layer_1" data-name="Layer 1" xmlns="http://www.w3.org/2000/svg" viewBox="0 0 128.67 18.08"><title>Naja_Forest-logo</title><path d="M13.41.95a.93.93,0,0,0-.64.3,1.44,1.44,0,0,0-.27.88q0,1,0,2.1t0,2.44V13h-.56l-.54-.65-1.25-1.45L8.38,9,6.47,6.8q-.58-.64-1.26-1.42L3.94,3.93,2.56,2.36V6.94q0,1.24,0,2.25t0,1.94A1.15,1.15,0,0,0,3,12a1.77,1.77,0,0,0,.9.33l.51.05v.45l-.73,0H.76l-.65,0v-.45l.65-.05A.91.91,0,0,0,1.4,12a1.46,1.46,0,0,0,.27-.87q0-1,0-2.1t0-2.46V3.9q0-.61,0-1.11t0-.85a.94.94,0,0,0-.32-.74A1.44,1.44,0,0,0,.55.93L0,.89V.44H3.42l.42,0L8,5.2,9.16,6.52l1.18,1.35,1.29,1.47V4.09q0-1,0-1.94a1.14,1.14,0,0,0-.32-.87,1.75,1.75,0,0,0-.94-.33L9.83.89V.44l.71,0,.7,0h1.52l.65,0,.65,0V.89Z" style="fill:#c4622d"/><path d="M27.93,12.83l-.84,0H24.59l-.89,0-1,0v-.45l.44,0a1.8,1.8,0,0,0,.72-.17.47.47,0,0,0,.25-.45,1.55,1.55,0,0,0-.09-.39q-.09-.28-.23-.65t-.31-.79l-.33-.8-.28-.68L22.7,8H18.65q-.16.42-.39,1T17.82,10q-.21.54-.35,1a2.45,2.45,0,0,0-.14.62.59.59,0,0,0,.26.5,1.75,1.75,0,0,0,.85.25l.44,0v.45l-.84,0-.74,0H16l-.58,0-.62,0v-.45l.4-.05a1.11,1.11,0,0,0,.7-.36,2.73,2.73,0,0,0,.48-.78l.28-.66q.21-.48.47-1.13L17.76,8q.31-.73.58-1.4l.84-2,.83-2L20.67,1Q21,.36,21,.16h.76L22,.67l.37.91.48,1.17.54,1.3.54,1.28.46,1.12L25,7.83l.52,1.25.43,1q.19.45.32.73a6.87,6.87,0,0,0,.35.7,2.74,2.74,0,0,0,.31.45,1,1,0,0,0,.31.25,1,1,0,0,0,.36.1l.38.05ZM20.65,3.11l-1.71,4.2h3.47Z" style="fill:#c4622d"/><path d="M33.55,1a.87.87,0,0,0-.65.27,1.39,1.39,0,0,0-.22.75q0,.22,0,.65t0,1V6.36q0,1.2,0,2.43t0,2.48a12,12,0,0,1-.26,2.47,5.42,5.42,0,0,1-.86,2,6.43,6.43,0,0,1-.84,1,6.92,6.92,0,0,1-.85.7,6.41,6.41,0,0,1-.75.45,3.22,3.22,0,0,1-.54.23l-.18-.4.3-.17a2.93,2.93,0,0,0,.43-.34,3,3,0,0,0,.46-.56,3.59,3.59,0,0,0,.39-.84,6.34,6.34,0,0,0,.21-.92q.08-.52.13-1.08t.07-1.13q0-.56.06-1.09,0-.33,0-.87t0-1.2V5.34q0-.71,0-1.34t0-1.16q0-.53,0-.85a1.07,1.07,0,0,0-.28-.78,1.75,1.75,0,0,0-.92-.25L28.55.89V.44l1.11,0,1,0H32.4l.89,0,1,0V.89Z" style="fill:#c4622d"/><path d="M48.05,12.83l-.84,0H44.71l-.89,0-1,0v-.45l.44,0a1.8,1.8,0,0,0,.72-.17.47.47,0,0,0,.25-.45,1.55,1.55,0,0,0-.09-.39q-.09-.28-.23-.65t-.31-.79l-.33-.8L43,8.42,42.82,8H38.76q-.16.42-.39,1T37.94,10q-.21.54-.35,1a2.45,2.45,0,0,0-.14.62.59.59,0,0,0,.26.5,1.75,1.75,0,0,0,.85.25l.44,0v.45l-.84,0-.74,0H36.17l-.58,0-.62,0v-.45l.4-.05a1.11,1.11,0,0,0,.7-.36,2.73,2.73,0,0,0,.48-.78l.28-.66q.21-.48.47-1.13L37.87,8q.31-.73.58-1.4l.84-2,.83-2L40.79,1q.28-.68.35-.88h.76l.21.51.37.91L43,2.75l.54,1.3L44,5.33l.46,1.12.57,1.38.52,1.25.43,1q.19.45.32.73a6.87,6.87,0,0,0,.35.7A2.74,2.74,0,0,0,47,12a1,1,0,0,0,.31.25,1,1,0,0,0,.36.1l.38.05ZM40.76,3.11l-1.71,4.2h3.47Z" style="fill:#c4622d"/><path d="M62,3.42,61.86,3q-.05-.24-.13-.49A5,5,0,0,0,61.57,2a1.3,1.3,0,0,0-.22-.37,1.21,1.21,0,0,0-.7-.39,6.29,6.29,0,0,0-1.14-.08H56.3q0,.84,0,1.71v3.2h2q.73,0,1.2,0a1.57,1.57,0,0,0,.73-.2,1.06,1.06,0,0,0,.44-.65,7,7,0,0,0,.16-1h.47q0,.33,0,.67t0,.71V7.42q0,.43,0,.74t0,.6h-.47a5.77,5.77,0,0,0-.19-1A1,1,0,0,0,60,7.05a1.74,1.74,0,0,0-.71-.17q-.44,0-1.09,0h-2q0,1.2,0,2.31t0,2.14a.93.93,0,0,0,.26.75,2,2,0,0,0,.9.25l.76.09v.45l-1.15,0H53.5l-1,0v-.45l.65-.07a1,1,0,0,0,.65-.25A1.3,1.3,0,0,0,54,11.3q0-.33,0-.85t0-1.14q0-.62,0-1.3V5.25q0-.69,0-1.31t0-1.13q0-.51,0-.84a1.14,1.14,0,0,0-.26-.77A1.34,1.34,0,0,0,53,.95l-.6-.05V.44l1,0h7.24l.93,0,.48,0,.22,0q0,.33,0,.62c0,.17,0,.33,0,.47a1.46,1.46,0,0,0,0,.29c0,.17,0,.35,0,.55a4.91,4.91,0,0,0,0,.55q0,.31.05.6Z" style="fill:#c4622d"/><path d="M77,6.4A7.2,7.2,0,0,1,76.56,9a6.16,6.16,0,0,1-3.38,3.54A6.64,6.64,0,0,1,70.5,13a7,7,0,0,1-2.62-.48,6.35,6.35,0,0,1-2.08-1.34,6,6,0,0,1-1.37-2,6.59,6.59,0,0,1-.49-2.57A6.27,6.27,0,0,1,67.88.75a6.8,6.8,0,0,1,2.6-.49,8.18,8.18,0,0,1,2.84.45,5.59,5.59,0,0,1,2,1.27A5.34,5.34,0,0,1,76.6,3.93,7.06,7.06,0,0,1,77,6.4Zm-2.51.42a11,11,0,0,0-.19-2,6.32,6.32,0,0,0-.66-1.9A4.25,4.25,0,0,0,72.4,1.51a3.27,3.27,0,0,0-2-.56,3.55,3.55,0,0,0-2.94,1.33,6.28,6.28,0,0,0-1.06,4,10.56,10.56,0,0,0,.26,2.43,5.92,5.92,0,0,0,.79,1.92,3.88,3.88,0,0,0,1.32,1.25,3.67,3.67,0,0,0,1.86.45,3.63,3.63,0,0,0,1.84-.43,3.29,3.29,0,0,0,1.18-1.16A5.08,5.08,0,0,0,74.33,9,12.1,12.1,0,0,0,74.51,6.82Z" style="fill:#c4622d"/><path d="M92.27,12.85l-.47,0-.55,0H89.81a3.69,3.69,0,0,1-.55-.05,2.05,2.05,0,0,1-.44-.13,2,2,0,0,1-.39-.23,6.21,6.21,0,0,1-.57-.45,6.84,6.84,0,0,1-.52-.52q-.25-.28-.55-.65L86.13,10l-.52-.68-.51-.68-.45-.58a3.16,3.16,0,0,0-.34-.36A.6.6,0,0,0,84,7.61l-.53-.06h-.6l-.36,0v.85q0,.52,0,1.06t0,1.05q0,.51,0,.84a1.29,1.29,0,0,0,.22.73,1,1,0,0,0,.65.27l.75.09v.45l-1,0H79.71l-1,0v-.45l.65-.07a1,1,0,0,0,.65-.25,1.3,1.3,0,0,0,.22-.76q0-.33,0-.85t0-1.14q0-.62,0-1.3V5.25q0-.69,0-1.31t0-1.13q0-.51,0-.84A1.14,1.14,0,0,0,80,1.21a1.34,1.34,0,0,0-.77-.26l-.6-.05V.44l1,0h5a5.56,5.56,0,0,1,3.28.79A2.6,2.6,0,0,1,89,3.45a3,3,0,0,1-.35,1.48A4.46,4.46,0,0,1,87.82,6a4.73,4.73,0,0,1-.92.69L86.25,7l.71.8.7.8.79.85a27.34,27.34,0,0,0,2.13,2.14,2.61,2.61,0,0,0,1.34.75l.35,0Zm-5.65-9a3.59,3.59,0,0,0-.15-1A2.52,2.52,0,0,0,86,2a2.28,2.28,0,0,0-.86-.64,3.27,3.27,0,0,0-1.32-.24h-.93l-.36,0,0,5.63.27,0,.64.05.5,0h.54a1.71,1.71,0,0,0,1.07-.32,2.43,2.43,0,0,0,.75-.85A4.06,4.06,0,0,0,86.62,3.89Z" style="fill:#c4622d"/><path d="M104,9.6q-.13.45-.22.91t-.17.8q-.08.42-.14.75l-.15.85-.49,0-.35,0H92.85v-.45l.65-.07a1,1,0,0,0,.65-.25,1.3,1.3,0,0,0,.22-.76q0-.33,0-.85t0-1.14q0-.62,0-1.3V5.27q0-.69,0-1.31t0-1.14q0-.52,0-.85a1.14,1.14,0,0,0-.26-.77,1.34,1.34,0,0,0-.77-.26l-.6-.05V.44l1,0h7.48l.93,0,.48,0,.22,0q0,.33,0,.62t0,.47a1.46,1.46,0,0,0,0,.29q0,.25,0,.55a4.91,4.91,0,0,0,0,.55q0,.31.05.6h-.47a10.27,10.27,0,0,0-.29-1.15,1.58,1.58,0,0,0-.4-.67,1.34,1.34,0,0,0-.66-.32,5.73,5.73,0,0,0-1.08-.08H96.63q0,.82,0,1.67V6h2.16q.67,0,1.14,0a1.66,1.66,0,0,0,.72-.17,1,1,0,0,0,.48-.64,7.41,7.41,0,0,0,.19-1.05h.47q0,.31,0,.65t0,.71V7.32q0,.43,0,.74t0,.6h-.47a5.62,5.62,0,0,0-.2-1.07.94.94,0,0,0-.56-.65,2.12,2.12,0,0,0-.71-.15q-.42,0-1.05,0H96.61V9.08q0,1,0,1.81a3.26,3.26,0,0,0,.07.59.56.56,0,0,0,.25.35,1.4,1.4,0,0,0,.58.17,9.2,9.2,0,0,0,1,0h1.8a5.89,5.89,0,0,0,1.33-.12,1.84,1.84,0,0,0,.81-.4,2.06,2.06,0,0,0,.52-.75q.2-.47.44-1.18Z" style="fill:#c4622d"/><path d="M115,9.18a3.43,3.43,0,0,1-.41,1.71,3.61,3.61,0,0,1-1.08,1.2,4.75,4.75,0,0,1-1.53.7,6.77,6.77,0,0,1-1.75.23,8.49,8.49,0,0,1-1.71-.14,5,5,0,0,0-.95-.14h-.45l-.34,0-.27,0q0-.25-.07-.45c0-.12,0-.24-.05-.35s0-.2,0-.26,0-.22-.08-.49-.09-.55-.15-.84l-.2-1.13h.47q.2.58.43,1.12a3.17,3.17,0,0,0,.64,1,2.88,2.88,0,0,0,1.08.68,5,5,0,0,0,1.74.25,4,4,0,0,0,1.26-.17,2.32,2.32,0,0,0,.85-.47,1.77,1.77,0,0,0,.47-.69,2.29,2.29,0,0,0,.15-.81,1.71,1.71,0,0,0-.25-1A2.79,2.79,0,0,0,112,8.5a5.7,5.7,0,0,0-1-.58l-1.18-.57-1.28-.63A5.05,5.05,0,0,1,107.52,6a3.08,3.08,0,0,1-.75-1,3.17,3.17,0,0,1-.28-1.41,3.11,3.11,0,0,1,.22-1.09,2.91,2.91,0,0,1,.73-1.07,3.93,3.93,0,0,1,1.34-.81,5.79,5.79,0,0,1,2.06-.32q.44,0,.82,0l.73.09.63.08a3.25,3.25,0,0,0,.52,0,2.38,2.38,0,0,0,.56-.05l.22-.05q0,.2,0,.4v.55q0,.4,0,.82t0,.78q0,.42.05.84h-.47l-.09-.49a5.07,5.07,0,0,0-.23-.8,2.3,2.3,0,0,0-.47-.76,2.33,2.33,0,0,0-.86-.56,3.81,3.81,0,0,0-1.4-.22,3.17,3.17,0,0,0-1.79.45,1.55,1.55,0,0,0-.68,1.38,1.91,1.91,0,0,0,.21.93,2.33,2.33,0,0,0,.59.69,4.55,4.55,0,0,0,.92.56l1.17.55q.78.35,1.46.68A6.18,6.18,0,0,1,113.9,7a3.09,3.09,0,0,1,.78.94A2.58,2.58,0,0,1,115,9.18Z" style="fill:#c4622d"/><path d="M128.2,3.56a6.61,6.61,0,0,0-.11-.73,4.79,4.79,0,0,0-.15-.6,1.44,1.44,0,0,0-.24-.47,1.19,1.19,0,0,0-.35-.33,1.39,1.39,0,0,0-.45-.15,3.63,3.63,0,0,0-.61,0h-2l-.55,0q0,.16,0,.77t0,1.4q0,.79,0,1.65V8q0,.68,0,1.3t0,1.14q0,.52,0,.85A1.14,1.14,0,0,0,124,12a1.34,1.34,0,0,0,.76.27l.75.09v.45l-1.05,0h-3.63l-1.07,0v-.45l.73-.09a1.46,1.46,0,0,0,.76-.25,1.12,1.12,0,0,0,.24-.75q0-.33,0-.85t0-1.14q0-.62,0-1.3V6.65q0-.69,0-1.55t0-1.65q0-.79,0-1.39t0-.78l-.51,0h-1.13q-.91,0-1.44,0a1.22,1.22,0,0,0-.88.48,1.44,1.44,0,0,0-.24.47,4.88,4.88,0,0,0-.15.6,6.5,6.5,0,0,0-.11.73h-.47q0-.49.05-1l0-.87q0-.45,0-.82V.36a3.63,3.63,0,0,1,0-.36H117a.46.46,0,0,0,.25.26,2.23,2.23,0,0,0,.85.15h.63l1.11,0h5.64q1.16,0,1.69,0a3.75,3.75,0,0,0,.59-.06A1.12,1.12,0,0,0,128,.25a.39.39,0,0,0,.15-.13.66.66,0,0,0,.05-.12h.29V.38c0,.11,0,.22,0,.33s0,.19,0,.25q0,.36,0,.81t0,.85q0,.47.05.95Z" style="fill:#c4622d"/></svg>