<svg id="Layer_1" data-name="Layer 1" xmlns="http://www.w3.org/2000/svg" viewBox="0 0 70.17 70.17"><title>Naja_Forest-Wireframe-READY-4-DEV</title><circle cx="35.09" cy="35.09" r="34.7" style="fill:#fff;stroke:#c4622d;stroke-miterlimit:10;stroke-width:0.765145921208679px"/><path d="M35.1,32.13c2.83,0,6.83.28,8,1a8,8,0,0,0-16.07,0c1.17-.74,5.2-1,8-1" style="fill:#c4622d"/><path d="M41.55,32.91a26.94,26.94,0,0,0-3.38-.4,2.29,2.29,0,0,1-1.27,1.34l.14.07a7.17,7.17,0,0,0,4.52-1" style="fill:#c4622d"/><path d="M32.82,34.71v-.5h-.08c-3,0-4.2-1-4.41-1.23-.85.2-1.32.41-1.32.6,0,.41,2.17,1,5.81,1.12" style="fill:#c4622d"/><path d="M33.21,33.92l.15-.07A2.42,2.42,0,0,1,32,32.51a26.53,26.53,0,0,0-3.35.4,7.15,7.15,0,0,0,4.52,1" style="fill:#c4622d"/><path d="M43.2,33.59c0-.19-.45-.4-1.29-.6-.22.21-1.43,1.22-4.4,1.22h-.1v.5C41,34.54,43.2,34,43.2,33.59" style="fill:#c4622d"/><path d="M33.74,33.7a4.45,4.45,0,0,1,1.19-.19V32.41c-.94,0-1.82,0-2.62.08a2.21,2.21,0,0,0,1.41,1.2" style="fill:#c4622d"/><path d="M37.87,32.49q-1.21-.07-2.64-.08V33.5a4.42,4.42,0,0,1,1.29.2,2.11,2.11,0,0,0,1.36-1.2" style="fill:#c4622d"/><path d="M36.38,41l0-1.66a1,1,0,0,1-.59-.36.81.81,0,0,1-1.36,0,1,1,0,0,1-.65.36V41a2,2,0,0,0,.4,1.29,1.2,1.2,0,0,0,.92.36,1.11,1.11,0,0,0,.83-.32A2.07,2.07,0,0,0,36.38,41" style="fill:#c4622d"/><path d="M33.69,35.83l-.49.1c-.05,0-.09.09-.09.13s.14.19.37.28l.21-.51" style="fill:#c4622d"/><path d="M36.78,36.33c.22-.09.35-.19.35-.27s0-.08-.09-.12l-.47-.1.21.5" style="fill:#c4622d"/><path d="M33.72,39a.75.75,0,0,0,.57-.35,1.39,1.39,0,0,1-.11-.53,6.21,6.21,0,0,1,.35-2c0-.14,0-.29-.07-.43l-.43,0a8.29,8.29,0,0,0-.81,2.36.94.94,0,0,0,.16.74.44.44,0,0,0,.34.16" style="fill:#c4622d"/><path d="M36.23,35.78l-.43,0c0,.11,0,.22-.06.32a9.33,9.33,0,0,1,.32,2.09,1.36,1.36,0,0,1-.1.52.77.77,0,0,0,.58.37.45.45,0,0,0,.34-.16.93.93,0,0,0,.16-.73,8.22,8.22,0,0,0-.81-2.37" style="fill:#c4622d"/><path d="M35.12,39c.36,0,.65-.4.65-.89a8.65,8.65,0,0,0-.45-2.44H35a7.4,7.4,0,0,0-.5,2.43c0,.51.29.9.65.9" style="fill:#c4622d"/><path d="M33.1,35.66a8.08,8.08,0,0,1,2-.25,7.92,7.92,0,0,1,2,.25V34.31a3.45,3.45,0,0,0-2-.53,3.61,3.61,0,0,0-2,.53Z" style="fill:#c4622d"/><path d="M26,36a5,5,0,0,1,.83,1.59c.24.39.66,1.18.66,1.18a.9.9,0,0,1,.49.06l-.07-.12-.32-.56-.14-.27c-.77-1.81-1.29-2.05-1.48-2.08h-.08Z" style="fill:#c4622d"/><path d="M22.29,46.89a6.05,6.05,0,0,1-1.36,1,7.32,7.32,0,0,1-1.16.51c.47.61,3.76,4.64,8.3,4.64s6.38-2.88,6.63-5.35c0,0,.33-3.57-1.76-5.22A13,13,0,0,0,29.83,41c-.43-.14-.76-.64-1.16-1.29l0,0a1.17,1.17,0,0,0-1.17-.59c-.07,0-.22.08-.25.16a.2.2,0,0,0,0,.17c.07.13.16.28.25.43l.15.25a7.06,7.06,0,0,1,.59,1.1l.22.22A7.05,7.05,0,0,1,30,43.21l-.28.06a9.87,9.87,0,0,0-1.47-1.66L28,41.36l0-.05a6.63,6.63,0,0,0-.57-1.08L27.27,40,27,39.54a.46.46,0,0,1,0-.43.4.4,0,0,1,.23-.23,12.5,12.5,0,0,0-.65-1.21l0,0a6.18,6.18,0,0,0-.8-1.49c-.23-.46-.48-.71-.73-.73a.65.65,0,0,0-.48.2,31.61,31.61,0,0,1,1.59,3.6,17.33,17.33,0,0,1,1.44,2.53,1,1,0,0,0,.31.37l.05,0a15.35,15.35,0,0,0,2.31,2.25,7.44,7.44,0,0,1,1.35,1.3,3,3,0,0,1,.2,2c-.72,2.62-3.88,2.49-3.9,2.49s-3,0-5.59-3.25" style="fill:#c4622d"/><path d="M44.3,35.79h-.09c-.19,0-.7.29-1.47,2.07l-.14.27-.5.76a1.46,1.46,0,0,1,.57-.1l.72-1.19a11.4,11.4,0,0,1,.51-1.17A5.46,5.46,0,0,1,44.3,35.79Z" style="fill:#c4622d"/><path d="M49.16,47.84a6,6,0,0,1-1.31-.91c-2.54,3.2-5.43,3.2-5.57,3.2s-3.17.14-3.89-2.48a3,3,0,0,1,.2-2,7.49,7.49,0,0,1,1.35-1.3,15.32,15.32,0,0,0,2.31-2.25l0,0a1,1,0,0,0,.34-.38,17.16,17.16,0,0,1,1.44-2.53,31.77,31.77,0,0,1,1.59-3.6.64.64,0,0,0-.48-.2c-.25,0-.5.27-.72.72a7.94,7.94,0,0,0-.81,1.61A10.05,10.05,0,0,0,43,38.87a.43.43,0,0,1,.24.23.45.45,0,0,1,0,.43L42.9,40l-.15.25a6.49,6.49,0,0,0-.57,1.08l0,.05-.25.25a9.76,9.76,0,0,0-1.47,1.66l-.28-.06a7,7,0,0,1,1.55-1.8l.22-.22a7,7,0,0,1,.59-1.1l.15-.25.25-.43a.22.22,0,0,0,0-.17c0-.08-.19-.14-.26-.16l-.21,0a1.24,1.24,0,0,0-1,.62l0,0c-.39.64-.73,1.15-1.16,1.29a13,13,0,0,0-3.12,1.45c-2.09,1.65-1.76,5.18-1.75,5.22.25,2.47,2.14,5.35,6.64,5.35s7.78-4,8.29-4.63a6.92,6.92,0,0,1-1.23-.53" style="fill:#c4622d"/><path d="M21.9,44.79a4,4,0,0,1-2,1.64,5,5,0,0,1-2.06.58h0a1,1,0,0,0-.05.16.78.78,0,0,0,.07.59l0,0s.19.45.93.45a4.54,4.54,0,0,0,2-.65c1.32-.71,1.73-1.34,1.84-1.75a.81.81,0,0,0,0-.61.9.9,0,0,0-.68-.45" style="fill:#c4622d"/><path d="M20.75,43.4l.12.33v.07s-.1.69-1.31,1.31a2.79,2.79,0,0,1-2.13.42l-.05,0,0,0L17.13,45a1.59,1.59,0,0,0-.36.6.78.78,0,0,0,0,.59v0s.18.5,1,.5a4.76,4.76,0,0,0,1.94-.55c1.36-.64,1.8-1.25,1.92-1.65a.79.79,0,0,0,0-.61,1,1,0,0,0-.94-.52" style="fill:#c4622d"/><path d="M50.19,46.43a4,4,0,0,1-2-1.64.89.89,0,0,0-.67.43.79.79,0,0,0-.06.62c.11.4.51,1,1.84,1.75a4.52,4.52,0,0,0,2,.65c.74,0,.93-.43.94-.45a.81.81,0,0,0,.08-.63,1.27,1.27,0,0,0-.05-.15h0a5.07,5.07,0,0,1-2.06-.58" style="fill:#c4622d"/><path d="M53,45.06l-.2.4,0,0-.05,0a1.41,1.41,0,0,1-.44.06,3.76,3.76,0,0,1-1.69-.47c-1.2-.62-1.31-1.28-1.31-1.31v-.07l.12-.34c-.82,0-1,.5-1,.5a.81.81,0,0,0,0,.63c.13.4.56,1,1.92,1.65a4.77,4.77,0,0,0,1.94.55c.83,0,1-.48,1-.5a.79.79,0,0,0,0-.63,1.55,1.55,0,0,0-.3-.53" style="fill:#c4622d"/><path d="M50.59,38.33a15.38,15.38,0,0,1-1,5.47c0,.12.23.59,1.15,1.06a2.93,2.93,0,0,0,1.85.42A19.67,19.67,0,0,0,37.23,16.48c-.45,1.16-1.1,2.58-1.59,2.58h-.07c-.13.31-.3.5-.49.5s-.35-.18-.48-.48h0c-.49,0-1.13-1.41-1.59-2.6A19.67,19.67,0,0,0,17.58,45.27a2.91,2.91,0,0,0,1.85-.42c.92-.47,1.11-.94,1.15-1.06A15.46,15.46,0,0,1,33.37,23h.15l0,.15a1.11,1.11,0,0,0,.34.84,1.81,1.81,0,0,0,1.19.53h0a1.81,1.81,0,0,0,1.19-.53,1.13,1.13,0,0,0,.34-.84V23h.15A15.46,15.46,0,0,1,50.59,38.33" style="fill:#c4622d"/><path d="M34.27,14.68c.26.94.92,3.53.55,4.22.08.23.17.36.26.36s.19-.15.27-.39a3.84,3.84,0,0,1,.09-2c.13-.67.3-1.37.43-1.86s0-.85,0-1.2c0-.76-.38-1.4-.84-1.4s-.83.64-.83,1.4c0,.27,0,.58,0,.91" style="fill:#c4622d"/><path d="M36.31,14.52c-.1.33-.39,1.38-.58,2.37-.33,1.75-.09,1.88-.09,1.88h0c.39,0,1.43-2.55,1.85-3.89.17-.55,0-1.1-.28-1.2h-.1c-.31,0-.65.36-.8.84" style="fill:#c4622d"/><path d="M34.56,18.79h0c.33-.1-.17-2.76-.66-4.37-.15-.5-.51-.87-.82-.87l-.11,0a.54.54,0,0,0-.33.41,1.51,1.51,0,0,0,0,.82c.42,1.37,1.48,4,1.88,4" style="fill:#c4622d"/><circle cx="35.09" cy="35.09" r="34.7" style="fill:none;stroke:#c4622d;stroke-miterlimit:10;stroke-width:0.765145921208679px"/><path d="M4.67,24.73a.44.44,0,0,0,.07.33.69.69,0,0,0,.38.22l1,.25,1.13.27,1.06.25.78.19.6.14.49.12-.06.26-.36.18-.81.42-1.09.57-1.21.64L5.81,29,5,29.42l-.87.47,2.11.5,1,.24.9.19a.54.54,0,0,0,.44-.07.84.84,0,0,0,.25-.38L9,30.15l.21,0q0,.17-.09.33L9,30.85l-.09.35-.08.35-.07.31c0,.11,0,.21-.06.3l-.21,0,0-.31a.43.43,0,0,0-.07-.33.7.7,0,0,0-.37-.22l-1-.25L6,30.74l-.64-.15-.6-.14-.51-.12-.39-.08a.45.45,0,0,0-.37.07.68.68,0,0,0-.22.35l-.08.25-.21,0,0-.13,0-.18.07-.28L3.19,30l.07-.31.09-.36c0-.06,0-.13,0-.19L6,27.69l.73-.39.75-.4.82-.43L7,26.14l-1-.25L5,25.7a.54.54,0,0,0-.44.05.83.83,0,0,0-.25.4l-.08.23-.21,0c0-.1.06-.21.09-.32s.06-.2.09-.32l.08-.36L4.38,25c0-.11,0-.21.06-.3s0-.2.06-.3l.21,0Z" style="fill:#c4622d"/><path d="M14.21,18.7,14,19l-.2.32-.21.34-.21.35-.21.37-.23.4-.18-.11.09-.19a.86.86,0,0,0,.11-.33.22.22,0,0,0-.12-.21l-.18-.06-.32-.07-.4-.07-.4-.07-.35-.05-.22,0-.13.21-.17.27-.24.38-.2.34-.15.25-.12.2.29.39.33.44.31.38a1.16,1.16,0,0,0,.22.21.28.28,0,0,0,.27,0,.82.82,0,0,0,.31-.28l.12-.17.18.11-.21.33-.19.29-.17.27-.14.24-.13.24L11,24l-.18-.11.08-.18a.53.53,0,0,0,0-.37,1.3,1.3,0,0,0-.2-.39l-.2-.28-.34-.47-.41-.57-.42-.58-.6-.83-.6-.82-.48-.67-.27-.36.19-.31.26,0,.46.07.59.09.66.1.65.1.57.09.7.11.63.1.52.08.37.05.37,0h.26a.5.5,0,0,0,.18-.06.47.47,0,0,0,.13-.12l.12-.14Zm-5.73.55L9.76,21l.86-1.4Z" style="fill:#c4622d"/><path d="M13.36,11.61a.41.41,0,0,0-.13.31.66.66,0,0,0,.17.32l.21.23.33.34.42.43.48.49c.27.27.62.66.89.95a5.7,5.7,0,0,1,.73.92,2.57,2.57,0,0,1,.36.95,3,3,0,0,1,.05.62,3.27,3.27,0,0,1-.05.52,3,3,0,0,1-.1.4,1.54,1.54,0,0,1-.11.26l-.19-.07,0-.16a1.39,1.39,0,0,0,0-.26,1.43,1.43,0,0,0,0-.34,1.71,1.71,0,0,0-.15-.41,3,3,0,0,0-.23-.38q-.14-.2-.32-.41l-.35-.4-.34-.39-.28-.3-1-1.1-.45-.45-.39-.39L12.63,13a.51.51,0,0,0-.35-.17.83.83,0,0,0-.39.22l-.23.19-.15-.15.38-.36.34-.32.3-.3.29-.28.29-.3.33-.34.15.15Z" style="fill:#c4622d"/><path d="M24.39,10.79,24,11l-.32.19-.35.2-.35.21-.36.23-.4.24-.11-.18.17-.12a.85.85,0,0,0,.25-.24.22.22,0,0,0,0-.24.73.73,0,0,0-.13-.14l-.25-.21-.32-.25-.33-.25-.28-.21-.18-.13-.21.12-.27.16-.39.23-.33.2-.25.15-.2.12q0,.21.07.48t.08.54q0,.27.09.48a1.16,1.16,0,0,0,.09.28A.28.28,0,0,0,20,13a.83.83,0,0,0,.4-.1l.19-.09.11.18-.35.19-.31.17-.28.16-.23.14-.23.15-.25.16L19,13.77l.15-.12a.53.53,0,0,0,.2-.32,1.3,1.3,0,0,0,0-.43q0-.09,0-.34T19.18,12q0-.33-.1-.7t-.1-.71q-.06-.48-.14-1l-.14-1-.11-.82q0-.35-.07-.45l.31-.18.21.16.37.28.48.36.53.4.53.39.46.34.57.43.51.39.42.32.3.22.31.2.23.11a.49.49,0,0,0,.18,0,.48.48,0,0,0,.17,0l.17-.07ZM19.08,8.58l.32,2.12,1.42-.84Z" style="fill:#c4622d"/><path d="M33.83,4.23,33.77,4l-.09-.22-.1-.22a.61.61,0,0,0-.12-.16.57.57,0,0,0-.35-.15,3,3,0,0,0-.54,0l-1.51.17q0,.39.08.81l.17,1.51.92-.1.56-.08a.75.75,0,0,0,.33-.13.5.5,0,0,0,.17-.33,3.25,3.25,0,0,0,0-.48l.22,0c0,.1,0,.21,0,.32s0,.21,0,.33l0,.39.05.47q0,.2,0,.35t0,.28l-.22,0a2.7,2.7,0,0,0-.14-.48A.49.49,0,0,0,33.12,6a.82.82,0,0,0-.34,0l-.51,0-.92.1q.06.56.12,1.09t.13,1a.44.44,0,0,0,.16.34.93.93,0,0,0,.44.07h.36l0,.21L32,8.91l-.48,0-.44,0-.38,0-.41,0-.46.06,0-.21.3-.07a.49.49,0,0,0,.29-.15.62.62,0,0,0,.06-.37q0-.15,0-.4l-.05-.54q0-.29-.06-.61l-.07-.65-.07-.66q0-.33-.07-.62l-.07-.53q0-.24-.06-.39a.54.54,0,0,0-.16-.35.63.63,0,0,0-.38-.08h-.29l0-.21.45,0,.79-.09.29,0,.53-.06.6-.07L32.32,3,33,2.89l.43-.06.22,0,.1,0q0,.15,0,.29t0,.22a.69.69,0,0,0,0,.14c0,.08,0,.17,0,.26a2.37,2.37,0,0,0,.05.26c0,.1,0,.19.06.28Z" style="fill:#c4622d"/><path d="M43.49,6.74a3.4,3.4,0,0,1-.44,1.16,2.92,2.92,0,0,1-1.88,1.36,3.14,3.14,0,0,1-1.29,0,3.3,3.3,0,0,1-1.18-.45,3,3,0,0,1-.85-.8A2.85,2.85,0,0,1,37.39,7a3.13,3.13,0,0,1,0-1.24,3,3,0,0,1,2.34-2.4,3.22,3.22,0,0,1,1.25,0,3.86,3.86,0,0,1,1.29.46,2.64,2.64,0,0,1,.84.77,2.53,2.53,0,0,1,.41,1A3.34,3.34,0,0,1,43.49,6.74Zm-1.2,0a5.17,5.17,0,0,0,.08-.94,3,3,0,0,0-.15-.94,2,2,0,0,0-.46-.77,1.55,1.55,0,0,0-.87-.43A1.68,1.68,0,0,0,39.42,4a3,3,0,0,0-.84,1.76,5,5,0,0,0-.09,1.15,2.8,2.8,0,0,0,.2,1,1.84,1.84,0,0,0,.51.7,1.74,1.74,0,0,0,.83.37,1.71,1.71,0,0,0,.9,0,1.56,1.56,0,0,0,.65-.44A2.41,2.41,0,0,0,42,7.71,5.73,5.73,0,0,0,42.29,6.72Z" style="fill:#c4622d"/><path d="M50.72,13.63l-.2-.09-.23-.11L50,13.26l-.31-.17-.22-.15a1,1,0,0,1-.15-.15,1,1,0,0,1-.11-.18,2.92,2.92,0,0,1-.13-.32,3.12,3.12,0,0,1-.1-.33q0-.17-.08-.39L48.82,11q0-.19-.06-.4l-.05-.4c0-.13,0-.24-.05-.35a1.51,1.51,0,0,0-.06-.23.29.29,0,0,0-.1-.12l-.2-.15-.12-.07L48,9.26l-.15-.09-.19.35-.24.44-.23.44-.18.35a.61.61,0,0,0-.08.35.46.46,0,0,0,.21.26l.29.21-.1.19L47,11.53l-.37-.21-.35-.2-.35-.19-.37-.2-.4-.21.1-.19.29.12a.49.49,0,0,0,.33,0,.61.61,0,0,0,.27-.27l.21-.34.27-.47.3-.54.31-.57.32-.58.3-.54.25-.47.18-.35A.54.54,0,0,0,48.31,6,.63.63,0,0,0,48,5.7l-.24-.16.1-.19.41.24L49,6l.26.15.34.18.38.21.38.21a2.63,2.63,0,0,1,1.18,1.08A1.23,1.23,0,0,1,51.52,9a1.4,1.4,0,0,1-.49.53,2.11,2.11,0,0,1-.58.25,2.25,2.25,0,0,1-.54.08h-.35l.11.49q0,.22.11.49t.13.54a13,13,0,0,0,.39,1.38,1.24,1.24,0,0,0,.39.62l.14.09Zm-.29-5a1.7,1.7,0,0,0,.17-.45,1.19,1.19,0,0,0,0-.48,1.08,1.08,0,0,0-.21-.46,1.55,1.55,0,0,0-.49-.4l-.22-.11-.17-.09-.15-.08-1.3,2.33.1.08.25.17.2.12.22.12a.81.81,0,0,0,.52.11,1.15,1.15,0,0,0,.5-.18A1.92,1.92,0,0,0,50.43,8.62Z" style="fill:#c4622d"/><path d="M56.9,17.53l-.38.23-.33.21-.3.2-.34.23-.15-.18-.11-.13L55.22,18,53,15.72l-.28-.28-.29-.29-.31-.32.15-.15.24.2a.49.49,0,0,0,.3.14.62.62,0,0,0,.33-.18l.3-.27.39-.37.44-.43.47-.45.47-.46.44-.43.38-.38.28-.29a.54.54,0,0,0,.18-.34.63.63,0,0,0-.17-.35l-.18-.22.15-.15.31.33.55.57.21.22.4.41.45.46.35.36.51.52.31.31.17.15.08.06-.2.21-.15.16-.09.1-.18.19-.17.2-.19.22L58.53,15a4.93,4.93,0,0,0,.29-.48.74.74,0,0,0,.1-.36.63.63,0,0,0-.11-.33,2.74,2.74,0,0,0-.33-.39l-1.14-1.17-.57.55-1.07,1,.71.73.38.38a.79.79,0,0,0,.3.19.47.47,0,0,0,.38,0,3.5,3.5,0,0,0,.42-.28L58,15l-.23.21-.25.23-.28.27-.34.33-.24.25-.2.2-.16-.16a2.65,2.65,0,0,0,.3-.42.44.44,0,0,0,0-.41,1,1,0,0,0-.18-.29l-.34-.37-.71-.73-.79.77-.6.61a1.54,1.54,0,0,0-.18.22.26.26,0,0,0,0,.2.67.67,0,0,0,.13.25,4.35,4.35,0,0,0,.33.37l.59.61a2.8,2.8,0,0,0,.48.41.88.88,0,0,0,.4.14,1,1,0,0,0,.43-.07l.55-.24Z" style="fill:#c4622d"/><path d="M60.82,23.65a1.63,1.63,0,0,1-.8.21,1.71,1.71,0,0,1-.74-.18,2.24,2.24,0,0,1-.63-.48,3.2,3.2,0,0,1-.49-.68,4,4,0,0,1-.33-.74,2.34,2.34,0,0,0-.16-.42l-.1-.18L57.48,21l-.08-.11.17-.13.14-.1.1-.07.19-.14.31-.25.43-.34.11.2q-.2.21-.37.43a1.49,1.49,0,0,0-.26.48,1.36,1.36,0,0,0,0,.6,2.37,2.37,0,0,0,.28.78,1.91,1.91,0,0,0,.36.49,1.1,1.1,0,0,0,.39.25.83.83,0,0,0,.39,0A1.08,1.08,0,0,0,60,23a.82.82,0,0,0,.34-.32,1.33,1.33,0,0,0,.14-.44,2.7,2.7,0,0,0,0-.54q0-.29,0-.62l0-.68a2.4,2.4,0,0,1,.05-.61,1.46,1.46,0,0,1,.24-.53,1.5,1.5,0,0,1,.52-.43,1.47,1.47,0,0,1,.5-.15,1.38,1.38,0,0,1,.61.06,1.86,1.86,0,0,1,.64.38,2.73,2.73,0,0,1,.6.79q.1.18.17.35c0,.11.09.22.13.32l.11.28a1.53,1.53,0,0,0,.1.23,1.12,1.12,0,0,0,.15.22l.07.08-.17.08-.23.12-.34.19-.32.19-.34.21L62.8,22l.18-.15a2.42,2.42,0,0,0,.28-.27,1.05,1.05,0,0,0,.25-.85,1.8,1.8,0,0,0-.22-.63,1.5,1.5,0,0,0-.59-.64.73.73,0,0,0-.73,0,.91.91,0,0,0-.34.3,1.11,1.11,0,0,0-.16.4,2.17,2.17,0,0,0,0,.51q0,.28,0,.61t0,.76a2.94,2.94,0,0,1,0,.66,1.47,1.47,0,0,1-.22.54A1.23,1.23,0,0,1,60.82,23.65Z" style="fill:#c4622d"/><path d="M65.68,31.11,66,31l.26-.13a.68.68,0,0,0,.2-.16.56.56,0,0,0,.12-.2.65.65,0,0,0,0-.23,1.73,1.73,0,0,0,0-.29l-.08-.39-.07-.29L66.36,29q0-.13-.06-.25l-.36.07-.65.13-.77.16-.72.16-.64.14-.6.14-.52.12-.39.1a.53.53,0,0,0-.31.18.63.63,0,0,0,0,.38l0,.35-.21,0q-.05-.25-.1-.49l-.09-.44-.08-.4-.09-.4-.1-.44q-.06-.24-.12-.49l.21,0,.12.33a.69.69,0,0,0,.19.33.53.53,0,0,0,.37,0l.39-.07.53-.11.6-.13.64-.14.72-.16.76-.17.64-.14.36-.08c0-.07,0-.15,0-.24l0-.24L65.92,27q-.09-.42-.17-.66a.57.57,0,0,0-.31-.36.67.67,0,0,0-.24-.06H64.9l-.35,0,0-.22.45-.07.41-.07.38-.07.25-.05.17,0,0,.13a.22.22,0,0,0-.1.14,1.06,1.06,0,0,0,0,.41l.06.29.1.51.14.64.15.67.28,1.3q.12.54.19.78a1.77,1.77,0,0,0,.09.27.52.52,0,0,0,.08.14l.07.05h.06l0,.13-.18,0L67,31l-.12,0-.37.09-.39.11-.43.12Z" style="fill:#c4622d"/><circle cx="35.09" cy="35.09" r="23.86" style="fill:none;stroke:#c4622d;stroke-miterlimit:10;stroke-width:0.765145921208679px"/><path d="M6.14,39.36a1.4,1.4,0,0,1-.51,0,1.2,1.2,0,0,1-.75-.58,1.28,1.28,0,0,1-.16-.51,1.36,1.36,0,0,1,0-.52A1.24,1.24,0,0,1,5,37.29,1.17,1.17,0,0,1,5.34,37a1.29,1.29,0,0,1,.49-.15A1.22,1.22,0,0,1,7,37.48a1.32,1.32,0,0,1,.15.49,1.58,1.58,0,0,1,0,.56A1.08,1.08,0,0,1,7,39a1,1,0,0,1-.35.28A1.37,1.37,0,0,1,6.14,39.36ZM6,38.89a2.13,2.13,0,0,0,.38-.08,1.24,1.24,0,0,0,.35-.17A.83.83,0,0,0,7,38.37.64.64,0,0,0,7.06,38a.69.69,0,0,0-.31-.54A1.22,1.22,0,0,0,6,37.31a2.06,2.06,0,0,0-.46.1,1.15,1.15,0,0,0-.35.19.75.75,0,0,0-.22.28.72.72,0,0,0-.05.37A.7.7,0,0,0,5,38.6a.64.64,0,0,0,.25.21,1,1,0,0,0,.35.09A2.37,2.37,0,0,0,6,38.89Z" style="fill:#c4622d"/><path d="M5.74,43.5l0-.09,0-.1,0-.13,0-.14a.68.68,0,0,1,0-.11.37.37,0,0,1,0-.09.38.38,0,0,1,0-.08l.06-.13.07-.12.1-.13L6,42.21l.11-.13L6.21,42l.09-.11.05-.08a.12.12,0,0,0,0-.06v-.29l-.16,0-.2,0-.2.05-.16,0a.25.25,0,0,0-.13.07.19.19,0,0,0,0,.14l0,.14-.09,0,0-.19,0-.17,0-.16,0-.16,0-.17,0-.18.09,0,0,.12a.2.2,0,0,0,.08.11.25.25,0,0,0,.15,0l.16,0,.22,0L6.12,41,6.38,41l.26-.06.25-.06.21-.05.16,0a.22.22,0,0,0,.13-.08.26.26,0,0,0,0-.16l0-.12.09,0,0,.19.08.32,0,.12,0,.15,0,.17,0,.17a1.08,1.08,0,0,1,0,.66.51.51,0,0,1-.37.3.57.57,0,0,1-.3,0,.85.85,0,0,1-.24-.11.91.91,0,0,1-.17-.14l-.09-.11-.12.17-.12.17-.13.19a5.21,5.21,0,0,0-.31.5.5.5,0,0,0-.08.29v.07ZM7.18,42A.69.69,0,0,0,7.37,42a.49.49,0,0,0,.15-.13.45.45,0,0,0,.08-.19.64.64,0,0,0,0-.26l0-.1,0-.08,0-.07-1.07.25v.05l0,.12,0,.1,0,.1a.33.33,0,0,0,.11.19.47.47,0,0,0,.19.1A.79.79,0,0,0,7.18,42Z" style="fill:#c4622d"/><path d="M8,46.72a.17.17,0,0,0-.09-.1.26.26,0,0,0-.14,0l-.2.07-.28.1-.15.06L7,46.9a3.92,3.92,0,0,0-.19-.36,3.17,3.17,0,0,1-.23-.5,2.06,2.06,0,0,1-.14-.6,1.19,1.19,0,0,1,.07-.49,1,1,0,0,1,.26-.38,1.33,1.33,0,0,1,.43-.26,1.42,1.42,0,0,1,.5-.1,1.11,1.11,0,0,1,.48.1,1.29,1.29,0,0,1,.42.33,1.86,1.86,0,0,1,.33.57l.08.24.05.18,0,.15,0,.12A.65.65,0,0,0,9.2,46l0,0-.14.05-.18.07-.16.06-.15.07,0-.09.08,0a.74.74,0,0,0,.16-.12.34.34,0,0,0,.09-.17.69.69,0,0,0,0-.25,1.89,1.89,0,0,0-.1-.36A1.34,1.34,0,0,0,8.62,45a.82.82,0,0,0-.29-.24.91.91,0,0,0-.39-.09,1.34,1.34,0,0,0-.5.1,1.24,1.24,0,0,0-.69.53.91.91,0,0,0,0,.79q.14.36.29.36l.14,0,.2-.07.1,0,.07,0,0,0,0,0a.21.21,0,0,0,.09-.09.23.23,0,0,0,0-.13l0-.12.08,0,.07.18.06.16.06.16.06.16.06.16.07.18-.08,0Z" style="fill:#c4622d"/><path d="M8.85,50.67l-.07-.14-.07-.14-.08-.15-.08-.15-.09-.15-.09-.17.08,0,0,.07a.35.35,0,0,0,.1.11.09.09,0,0,0,.1,0l.06-.05.09-.1.11-.13L9,49.51l.09-.11.06-.07,0-.09-.06-.11L9,49l-.08-.14-.06-.1,0-.08-.2,0-.22,0-.2,0-.12,0a.12.12,0,0,0-.06.09.34.34,0,0,0,0,.17l0,.08-.08,0L7.94,49l-.06-.13-.06-.12-.06-.1-.06-.1-.06-.1.08,0,0,.06a.22.22,0,0,0,.13.09.53.53,0,0,0,.18,0h.14l.24,0,.29,0,.29,0,.42,0,.42,0,.34,0,.18,0,.07.13-.07.08-.12.15-.16.19-.17.21-.17.21-.15.18-.18.23-.17.2-.14.17-.1.12-.09.12,0,.09a.2.2,0,0,0,0,.08.19.19,0,0,0,0,.07l0,.07Zm1-2.14L9,48.62l.32.59Z" style="fill:#c4622d"/><path d="M12.92,52.52a.18.18,0,0,0-.12-.07.28.28,0,0,0-.17.06l-.34.23-.39.28-.36.26-.27.19-.21.15-.17.12-.06-.09,0-.16.09-.36.11-.49.13-.55.08-.36.09-.36.09-.4-.72.52-.35.26-.3.23a.22.22,0,0,0-.1.16.35.35,0,0,0,.05.18l0,.09-.07.05-.08-.12-.08-.11-.08-.12L9.69,52l-.08-.11-.08-.1.07-.05.08.1a.18.18,0,0,0,.12.07.28.28,0,0,0,.17-.06l.34-.23.39-.28.22-.16.21-.15.17-.13.13-.1a.18.18,0,0,0,.08-.13.27.27,0,0,0,0-.16l-.06-.09.07-.05,0,0,0,.06.07.1.08.11.08.11.09.12.05.06-.28,1.2-.08.33-.08.34-.09.37.47-.34.36-.26.3-.23a.22.22,0,0,0,.1-.15.34.34,0,0,0-.05-.18l0-.09.07-.05.08.11.08.11.09.12.08.12.08.1.08.1-.07.05Z" style="fill:#c4622d"/><path d="M12.62,55.7l-.11-.13-.11-.12-.11-.12-.12-.13L12,55.06l.07-.06.1.09a.2.2,0,0,0,.12.06.25.25,0,0,0,.14-.07l.13-.11.17-.14.19-.17.2-.18.2-.18.19-.17L13.7,54l.12-.11a.25.25,0,0,0,.08-.13.2.2,0,0,0,0-.13l-.07-.1.07-.06.12.14.11.13.11.12.11.12.12.13.13.14-.07.06-.11-.1a.17.17,0,0,0-.12-.06.27.27,0,0,0-.14.07L14,54.3l-.17.14-.19.17-.2.18-.2.18-.19.17-.16.15-.12.11a.25.25,0,0,0-.08.13.19.19,0,0,0,0,.13l.08.12-.07.06Z" style="fill:#c4622d"/><path d="M15.45,58.36l-.25-.15a2.71,2.71,0,0,1-.42-.32,2,2,0,0,1-.39-.47,1.32,1.32,0,0,1-.17-.49,1.06,1.06,0,0,1,0-.48,1.35,1.35,0,0,1,.68-.75,1.15,1.15,0,0,1,.45-.11,1.22,1.22,0,0,1,.55.11,2,2,0,0,1,.51.34l.16.16.11.11.08.09.09.09.11.08h0l-.1.12-.12.14L16.7,57l-.1.13L16.53,57l.05-.08.05-.1a.61.61,0,0,0,0-.12.37.37,0,0,0,0-.13.48.48,0,0,0-.1-.23,1.36,1.36,0,0,0-.2-.22,1.32,1.32,0,0,0-.31-.21.83.83,0,0,0-.36-.08.88.88,0,0,0-.39.09,1.33,1.33,0,0,0-.4.32,1.72,1.72,0,0,0-.26.36,1,1,0,0,0-.11.39.87.87,0,0,0,.07.39,1.13,1.13,0,0,0,.29.39,1.32,1.32,0,0,0,.25.18.51.51,0,0,0,.27.07l.12,0,.12,0,.1-.05.08,0,.07.06-.33.27Z" style="fill:#c4622d"/><path d="M21.89,60a.17.17,0,0,0-.14,0,.27.27,0,0,0-.11.1l-.09.14-.11.19-.13.22-.14.23-.14.23-.13.22-.11.19-.08.14a.25.25,0,0,0,0,.14.19.19,0,0,0,.08.11l.12.09,0,.08-.17-.1-.15-.09-.14-.09-.14-.08-.15-.09-.17-.1,0-.08.12.05a.2.2,0,0,0,.13,0,.26.26,0,0,0,.11-.11l.09-.14.12-.19.13-.21.13-.22.1-.17.14-.23.12-.21.07-.12-.31.21-.29.19-.28.18-.34.23-.3.2-.23.15-.13.09-.08-.05s0-.07,0-.15l0-.29,0-.37,0-.39,0-.32,0-.33,0-.36-.44.74-.23.38-.19.33a.23.23,0,0,0,0,.18.31.31,0,0,0,.12.14l.08.06,0,.08-.12-.07-.12-.07-.13-.08-.13-.07-.11-.06L18,60.42l0-.08.1,0a.2.2,0,0,0,.15,0,.27.27,0,0,0,.13-.12l.22-.35.25-.41.14-.24.13-.22.11-.19.08-.14a.18.18,0,0,0,0-.15.28.28,0,0,0-.11-.13l-.09-.06,0-.08,0,0,.07,0,.1.06.11.07.11.07.16.09.07,0,0,.37,0,.34,0,.34,0,.35,0,.31,0,.3.28-.19.26-.17.26-.17.28-.19.29-.19.31-.21.08.05.14.09.1.06.11.06.1.06L22,60l.05,0,0,.08Z" style="fill:#c4622d"/><path d="M25.31,61.54a.19.19,0,0,0-.14,0,.28.28,0,0,0-.12.14l-.06.14-.06.14-.08.19-.11.26-.13.31-.1.21a.89.89,0,0,1-.18.25.72.72,0,0,1-.26.16.87.87,0,0,1-.34,0,1.34,1.34,0,0,1-.43-.11,1.8,1.8,0,0,1-.47-.27.86.86,0,0,1-.24-.3.64.64,0,0,1-.05-.32,1.15,1.15,0,0,1,.08-.33l.11-.27.17-.39.09-.22L23,61l0-.09,0-.08a.25.25,0,0,0,0-.15.2.2,0,0,0-.1-.09l-.11-.06,0-.08.17.08.16.07.15.06.15.06.16.06.18.07,0,.08-.14,0a.19.19,0,0,0-.14,0,.26.26,0,0,0-.09.12l-.05.11-.05.12-.06.14-.08.19-.09.21-.06.16-.05.13,0,.13a.73.73,0,0,0,0,.58.78.78,0,0,0,.43.36,1.19,1.19,0,0,0,.29.08.59.59,0,0,0,.25,0,.53.53,0,0,0,.22-.13.91.91,0,0,0,.18-.26l.06-.12,0-.11.05-.12.07-.16.08-.2.07-.17.06-.15.06-.16a.24.24,0,0,0,0-.18.33.33,0,0,0-.15-.13l-.09,0,0-.08.14.06.13.06.14.06.13.06.12,0,.12,0,0,.08Z" style="fill:#c4622d"/><path d="M27.71,64a.67.67,0,0,1-.17.3.7.7,0,0,1-.27.17.93.93,0,0,1-.32,0,1.32,1.32,0,0,1-.34-.05,1.65,1.65,0,0,1-.31-.12l-.17-.08-.08,0h-.12v-.31c0-.05,0-.11,0-.16l0-.22.09,0c0,.08,0,.16,0,.23a.61.61,0,0,0,.07.21.55.55,0,0,0,.17.18,1,1,0,0,0,.31.14.77.77,0,0,0,.25,0,.45.45,0,0,0,.18,0,.35.35,0,0,0,.13-.1.46.46,0,0,0,.07-.14.33.33,0,0,0,0-.19.55.55,0,0,0-.09-.17,1.1,1.1,0,0,0-.15-.16l-.19-.17-.21-.19a1,1,0,0,1-.16-.19.6.6,0,0,1-.09-.22.62.62,0,0,1,0-.28.61.61,0,0,1,.1-.19.56.56,0,0,1,.19-.16A.77.77,0,0,1,27,62a1.12,1.12,0,0,1,.4.05l.15.05.13.06.11,0,.09,0,.11,0h0l0,.07,0,.1,0,.15,0,.15,0,.16-.09,0v-.1a1,1,0,0,0,0-.16.44.44,0,0,0,0-.17.45.45,0,0,0-.13-.15.75.75,0,0,0-.25-.12.62.62,0,0,0-.36,0,.3.3,0,0,0-.2.22.37.37,0,0,0,0,.18.45.45,0,0,0,.07.16.9.9,0,0,0,.14.15l.19.16.24.21a1.19,1.19,0,0,1,.18.2.61.61,0,0,1,.1.22A.5.5,0,0,1,27.71,64Z" style="fill:#c4622d"/><path d="M31.51,65.38l-.17,0-.17,0-.16,0-.17,0-.19,0v-.09h.13a.2.2,0,0,0,.13,0A.25.25,0,0,0,31,65l0-.12,0-.15,0-.23.06-.36-.11,0-.17,0-.2,0-.18,0-.17,0-.18,0L30,64l-.11,0,0,.26,0,.24,0,.21,0,.16a.25.25,0,0,0,0,.15.19.19,0,0,0,.12.07l.14,0v.09l-.19,0-.17,0-.16,0-.16,0-.17,0L29,65V64.9h.13a.2.2,0,0,0,.13,0,.25.25,0,0,0,.06-.14l0-.16,0-.22,0-.25,0-.26,0-.27,0-.25,0-.22,0-.16a.25.25,0,0,0,0-.15.2.2,0,0,0-.12-.07l-.12,0V62.6l.18,0,.17,0,.16,0,.16,0,.17,0,.19,0v.09h-.15a.17.17,0,0,0-.13,0A.27.27,0,0,0,30,63q0,.11-.06.32l-.07.45.1,0,.16,0,.18,0,.17,0,.19,0,.2,0,.17,0,.11,0,0-.29,0-.21,0-.15v-.12a.26.26,0,0,0,0-.15.2.2,0,0,0-.12-.07L31,63v-.09l.18,0,.17,0,.16,0,.16,0,.17,0,.19,0v.09h-.15a.16.16,0,0,0-.13,0,.28.28,0,0,0-.06.14l0,.16,0,.22,0,.25,0,.27,0,.26,0,.25,0,.22,0,.16a.26.26,0,0,0,0,.15.18.18,0,0,0,.12.07l.14,0v.09Z" style="fill:#c4622d"/><path d="M35.66,65.6h-.58l-.08,0-.08,0-.11-.09-.1-.1-.1-.13L34.48,65l-.1-.13-.1-.13-.09-.12-.06-.07-.06,0h-.29v.16c0,.07,0,.14,0,.21s0,.14,0,.21,0,.12,0,.16a.25.25,0,0,0,0,.14.19.19,0,0,0,.13.06l.14,0v.09H33v-.09h.13a.2.2,0,0,0,.13,0,.25.25,0,0,0,0-.15s0-.1,0-.16v-.22c0-.08,0-.16,0-.25v-.54q0-.13,0-.25c0-.08,0-.15,0-.22s0-.12,0-.16a.22.22,0,0,0,0-.15.26.26,0,0,0-.15-.05h-.12v-.09h1.17a1.08,1.08,0,0,1,.63.17.51.51,0,0,1,.2.44A.58.58,0,0,1,35,64a.87.87,0,0,1-.16.2.91.91,0,0,1-.18.13l-.13.06.13.16.13.16.15.17a5.31,5.31,0,0,0,.4.43.51.51,0,0,0,.26.15h.07Zm-1.05-1.77a.71.71,0,0,0,0-.2.49.49,0,0,0-.09-.18.44.44,0,0,0-.16-.13.63.63,0,0,0-.26-.05h-.25l0,1.1h.38a.34.34,0,0,0,.21-.06.47.47,0,0,0,.15-.16A.79.79,0,0,0,34.61,63.83Z" style="fill:#c4622d"/><path d="M39.29,64a1.4,1.4,0,0,1,0,.51,1.2,1.2,0,0,1-.59.75,1.29,1.29,0,0,1-.51.15,1.35,1.35,0,0,1-.52,0,1.23,1.23,0,0,1-.43-.22,1.17,1.17,0,0,1-.3-.37,1.28,1.28,0,0,1-.14-.49,1.22,1.22,0,0,1,.65-1.22,1.32,1.32,0,0,1,.49-.14,1.59,1.59,0,0,1,.56,0,1.08,1.08,0,0,1,.42.21,1,1,0,0,1,.28.35A1.37,1.37,0,0,1,39.29,64Zm-.48.13a2.09,2.09,0,0,0-.08-.38,1.23,1.23,0,0,0-.17-.35.83.83,0,0,0-.27-.25.64.64,0,0,0-.39-.07.69.69,0,0,0-.54.31,1.22,1.22,0,0,0-.13.79,2,2,0,0,0,.1.46,1.14,1.14,0,0,0,.19.36.76.76,0,0,0,.28.22.72.72,0,0,0,.37.05.71.71,0,0,0,.35-.12.64.64,0,0,0,.21-.25,1,1,0,0,0,.09-.35A2.36,2.36,0,0,0,38.82,64.18Z" style="fill:#c4622d"/><path d="M43.19,63.21a1.4,1.4,0,0,1,0,.51,1.2,1.2,0,0,1-.48.82,1.28,1.28,0,0,1-.48.22,1.36,1.36,0,0,1-.52,0,1.23,1.23,0,0,1-.45-.16,1.17,1.17,0,0,1-.35-.32,1.27,1.27,0,0,1-.21-.46,1.22,1.22,0,0,1,.48-1.29,1.31,1.31,0,0,1,.47-.21,1.59,1.59,0,0,1,.56,0,1.09,1.09,0,0,1,.44.15,1,1,0,0,1,.32.31A1.37,1.37,0,0,1,43.19,63.21Zm-.46.19a2.12,2.12,0,0,0-.13-.37,1.23,1.23,0,0,0-.21-.33.83.83,0,0,0-.3-.21.64.64,0,0,0-.4,0,.69.69,0,0,0-.49.38,1.22,1.22,0,0,0,0,.8,2,2,0,0,0,.16.45,1.14,1.14,0,0,0,.24.33.76.76,0,0,0,.31.18.8.8,0,0,0,.7-.16.64.64,0,0,0,.17-.27,1,1,0,0,0,0-.36A2.34,2.34,0,0,0,42.73,63.4Z" style="fill:#c4622d"/><path d="M46.93,60.7a.17.17,0,0,0-.1.1.27.27,0,0,0,0,.15l.06.15.08.21.09.24.1.25.1.25.09.23.08.2.07.15a.25.25,0,0,0,.09.12.19.19,0,0,0,.14,0l.14,0,0,.08-.18.07-.16.06-.16.06-.15.06-.16.07-.18.07,0-.08L47,63a.2.2,0,0,0,.1-.09.25.25,0,0,0,0-.15l-.06-.15-.08-.2-.09-.23-.1-.24-.07-.18-.1-.24-.09-.23-.05-.13,0,.37,0,.34,0,.33c0,.14,0,.28,0,.41l0,.36,0,.27c0,.08,0,.13,0,.16l-.09,0-.11-.1-.21-.2-.27-.25-.29-.26-.24-.22-.24-.23L44.61,62l.32.8.16.41.15.35a.23.23,0,0,0,.12.13.31.31,0,0,0,.18,0l.1,0,0,.08-.13,0-.13,0-.14.05-.14.06-.12,0-.12.05,0-.08.1-.05a.2.2,0,0,0,.11-.11.27.27,0,0,0,0-.18q-.06-.19-.14-.38l-.18-.45-.1-.25-.1-.24-.08-.2-.06-.14a.18.18,0,0,0-.11-.11.28.28,0,0,0-.17,0l-.1,0,0-.08,0,0,.08,0,.11,0,.12,0,.12,0,.17-.07.07,0,.27.26.25.24.25.23.26.24.23.21.22.2c0-.11,0-.23,0-.34s0-.2,0-.31,0-.21,0-.31l0-.34,0-.35,0-.38.09,0,.15-.06.11,0,.11,0,.1,0,.08,0,.06,0,0,.08Z" style="fill:#c4622d"/><path d="M53.54,58.58l.07.17.06.15.06.13.08.15-.08.05-.06,0,0,0-1,.77-.13.1-.14.1-.15.11-.05-.07.09-.09a.2.2,0,0,0,.07-.11.25.25,0,0,0-.05-.14l-.09-.14L52,59.63l-.15-.21-.16-.22L51.55,59l-.15-.2-.13-.18-.1-.13a.22.22,0,0,0-.13-.09.26.26,0,0,0-.15,0l-.1.06-.05-.07.15-.11.26-.19.1-.07.19-.14.21-.16.17-.12.24-.18.14-.11.07-.06,0,0,.07.09.06.07,0,0,.07.08.07.08.08.09-.07.05-.18-.15a.3.3,0,0,0-.14-.06.26.26,0,0,0-.14,0l-.18.11-.54.4.19.26.36.49.34-.25.18-.13a.32.32,0,0,0,.09-.11.19.19,0,0,0,0-.16,1.49,1.49,0,0,0-.09-.19l.07-.05.07.1.08.11.09.13.12.16.09.11.07.09-.07.05-.15-.15a.18.18,0,0,0-.16,0l-.13.06-.17.12-.34.25.27.37.21.28.08.08a.11.11,0,0,0,.08,0l.11,0,.17-.11.28-.21a1.14,1.14,0,0,0,.19-.17.36.36,0,0,0,.08-.16.41.41,0,0,0,0-.18q0-.1-.07-.24Z" style="fill:#c4622d"/><path d="M56.77,56.54l-.12.11-.12.11-.12.11-.14.13-.16.16-.06-.06.08-.08,0-.08a.07.07,0,0,0,0-.09.35.35,0,0,0-.16-.07l-.37-.08-.13,0-.15,0-.19,0v.15s0,.09,0,.15v.16q0,.21,0,.35a.4.4,0,0,0,.06.19.09.09,0,0,0,.1,0l.1-.06.07-.06.06.06-.12.11-.11.1-.11.1-.1.09-.1.09-.1.1L55,58.12l.05-.06a.32.32,0,0,0,.07-.13.76.76,0,0,0,0-.18q0-.1,0-.24c0-.09,0-.2,0-.34l0-.18V56.8q0-.11,0-.21l-.23,0-.21,0-.21,0-.19,0-.18,0-.15,0h-.21l-.1,0,0,0-.06-.06.13-.12.12-.11.12-.11.13-.13.13-.12.13-.13.06.06-.07.07-.06.09a.07.07,0,0,0,0,.08.36.36,0,0,0,.15.06l.27.06.15,0,.14,0,.14,0v-.28s0-.09,0-.14,0-.19,0-.27a.33.33,0,0,0-.06-.16.09.09,0,0,0-.1,0l-.1.05-.07.06-.06-.06.12-.1.11-.1.11-.1.1-.09.09-.09.1-.09.06.06-.05.06a.3.3,0,0,0-.08.18,1,1,0,0,0,0,.23l0,.3v.18c0,.07,0,.13,0,.19l0,.22.23,0,.21,0,.21,0,.27.05.2,0,.15,0h.27a.26.26,0,0,0,.11-.05l0,0,.06.06Z" style="fill:#c4622d"/><path d="M57.87,52.54l-.12-.07-.11-.05-.1,0h-.09l-.08,0-.08.09-.1.13-.08.1-.07.09-.07.08.11.1.21.18.25.21.23.19.21.17.2.16.17.14.13.1a.22.22,0,0,0,.14.05.26.26,0,0,0,.14-.08l.11-.1.07.06-.13.16-.12.14-.11.13-.11.13-.12.14-.13.16-.07-.06.08-.12a.28.28,0,0,0,.06-.15.22.22,0,0,0-.08-.13l-.12-.11-.17-.14-.19-.16-.21-.17-.23-.19-.25-.2-.21-.17-.12-.1-.07.07-.07.08-.08.09-.17.22a.24.24,0,0,0,0,.19.28.28,0,0,0,0,.09l.07.1.1.11-.06.07-.14-.13L56.16,54,56,53.94,56,53.87l-.05,0,0,0H56a.43.43,0,0,0,.13-.11l.08-.09.14-.16.17-.21.18-.22.35-.42.2-.26.06-.1,0-.06a.08.08,0,0,0,0,0v0l0,0,.06,0,.05,0,0,0,.12.1.13.1.15.11Z" style="fill:#c4622d"/><path d="M61.49,50.39l0,.08-.05.09-.07.11-.08.12-.07.08-.07.06L61,51l-.13,0-.14,0-.16,0-.21,0h-.47l-.09,0-.05,0-.07.08,0,0,0,0,0,.06.14.09.17.11.17.11.14.08a.25.25,0,0,0,.14,0,.19.19,0,0,0,.11-.08l.09-.11.07,0-.11.16-.09.14-.09.14-.09.14-.09.15-.1.16-.07,0,.06-.11a.2.2,0,0,0,0-.13.25.25,0,0,0-.1-.12l-.14-.09L59.66,52l-.21-.14-.22-.14L59,51.54l-.21-.14-.19-.12-.14-.08a.22.22,0,0,0-.15,0,.26.26,0,0,0-.12.1l-.07.09-.07,0,.11-.16.18-.28.07-.1.08-.13.09-.15.1-.15a1.08,1.08,0,0,1,.47-.45.5.5,0,0,1,.48.06.57.57,0,0,1,.21.21.87.87,0,0,1,.09.25.93.93,0,0,1,0,.22c0,.07,0,.12,0,.14l.21,0,.2,0,.22,0a5.24,5.24,0,0,0,.57-.12.51.51,0,0,0,.26-.14l0-.05Zm-2.06,0a.71.71,0,0,0-.18-.08.49.49,0,0,0-.2,0,.44.44,0,0,0-.19.07.63.63,0,0,0-.18.19l-.05.09,0,.07,0,.06.92.59,0,0,.08-.1.06-.08L59.7,51a.33.33,0,0,0,.06-.21.47.47,0,0,0-.06-.21A.79.79,0,0,0,59.43,50.37Z" style="fill:#c4622d"/><path d="M63.17,47l-.07.15L63,47.3l-.07.15-.07.15-.07.16-.08.17-.08,0,0-.08a.34.34,0,0,0,0-.14.09.09,0,0,0-.06-.08l-.08,0h-.7l0,.09-.06.12-.08.17-.07.15,0,.11,0,.09.13.15.15.17.14.14.1.08a.12.12,0,0,0,.11,0,.34.34,0,0,0,.11-.13l0-.07.08,0-.07.15-.07.13-.06.12,0,.1,0,.1,0,.11-.08,0,0-.07A.22.22,0,0,0,62,49a.53.53,0,0,0-.1-.15l-.09-.1-.16-.18-.19-.22-.2-.22L61,47.87l-.28-.31-.23-.25-.13-.14.06-.13h2.4l.1,0,.07,0,0-.06,0-.06Zm-2.32.47.59.65.29-.61Z" style="fill:#c4622d"/><path d="M64.3,43.7q0,.09,0,.29a2.72,2.72,0,0,1-.13.51,2,2,0,0,1-.27.54,1.32,1.32,0,0,1-.38.35,1.05,1.05,0,0,1-.46.15,1.35,1.35,0,0,1-1-.31,1.15,1.15,0,0,1-.28-.37,1.22,1.22,0,0,1-.12-.55,2,2,0,0,1,.11-.6l.08-.21.06-.14,0-.11,0-.11A.67.67,0,0,0,62,43v0a0,0,0,0,0,0,0l.15,0,.17.06.16,0,.16,0,0,.09h-.33l-.12,0a.48.48,0,0,0-.17.18,1.4,1.4,0,0,0-.12.27,1.31,1.31,0,0,0-.07.37.83.83,0,0,0,.07.36.88.88,0,0,0,.24.32,1.32,1.32,0,0,0,.45.24,1.72,1.72,0,0,0,.43.09,1,1,0,0,0,.4-.06.87.87,0,0,0,.33-.22A1.13,1.13,0,0,0,64,44.4a1.31,1.31,0,0,0,.06-.31.5.5,0,0,0,0-.27.45.45,0,0,0-.07-.1l-.09-.09-.09-.07-.08-.05,0-.09.38.19Z" style="fill:#c4622d"/><path d="M63.42,39.67h-.26l-.1,0-.08.05a.27.27,0,0,0,0,.08.7.7,0,0,0,0,.11l0,.16,0,.12,0,.11,0,.1.15,0,.27.06.31.06.3.06.26.05.25,0,.22,0,.16,0a.22.22,0,0,0,.15,0,.26.26,0,0,0,.08-.13l0-.14.09,0,0,.2,0,.18,0,.17,0,.17,0,.18,0,.21-.09,0v-.14a.28.28,0,0,0,0-.16.21.21,0,0,0-.13-.07l-.16,0-.22,0L64,41.12l-.26-.05-.3-.06-.32-.06-.27-.05-.15,0,0,.1,0,.1,0,.11q0,.17,0,.28a.24.24,0,0,0,.06.19l.08.06.11.05.13,0,0,.09-.18,0-.16,0-.15,0-.1,0-.07,0v-.06a.09.09,0,0,0,.06,0,.44.44,0,0,0,.06-.16l0-.12,0-.21.05-.26.06-.28.11-.53q0-.22.06-.32a.69.69,0,0,0,0-.12.21.21,0,0,0,0-.07l0,0h0v-.06h.18l.16,0,.16,0,.18,0Z" style="fill:#c4622d"/><path d="M64.83,36.71a.67.67,0,0,1,.32.11.7.7,0,0,1,.22.23.93.93,0,0,1,.11.31,1.31,1.31,0,0,1,0,.34,1.67,1.67,0,0,1-.05.33,1,1,0,0,0,0,.18v.09s0,0,0,.07v.05h-.31l-.16,0-.22,0v-.09l.22-.07a.62.62,0,0,0,.2-.11.56.56,0,0,0,.15-.2,1,1,0,0,0,.08-.33.78.78,0,0,0,0-.25.45.45,0,0,0-.08-.17.34.34,0,0,0-.13-.1l-.15,0a.33.33,0,0,0-.19,0,.55.55,0,0,0-.15.12,1.12,1.12,0,0,0-.13.18l-.13.22-.14.24a1,1,0,0,1-.15.2.6.6,0,0,1-.2.13.62.62,0,0,1-.28,0,.6.6,0,0,1-.21-.06.57.57,0,0,1-.2-.16.76.76,0,0,1-.14-.27,1.13,1.13,0,0,1,0-.4c0-.06,0-.11,0-.16l0-.14,0-.12a.69.69,0,0,0,0-.1.46.46,0,0,0,0-.11v0h.66v.09h-.1l-.16,0a.45.45,0,0,0-.16.08.46.46,0,0,0-.12.16.74.74,0,0,0-.06.27.62.62,0,0,0,.06.35.3.3,0,0,0,.26.15.37.37,0,0,0,.18,0,.45.45,0,0,0,.14-.1.9.9,0,0,0,.12-.17l.12-.22.16-.27a1.23,1.23,0,0,1,.16-.22.61.61,0,0,1,.19-.14A.5.5,0,0,1,64.83,36.71Z" style="fill:#c4622d"/></svg>